%TF.GenerationSoftware,KiCad,Pcbnew,8.0.7*%
%TF.CreationDate,2025-04-21T23:50:55-03:00*%
%TF.ProjectId,matrixdisplay,6d617472-6978-4646-9973-706c61792e6b,rev?*%
%TF.SameCoordinates,Original*%
%TF.FileFunction,Copper,L1,Top*%
%TF.FilePolarity,Positive*%
%FSLAX46Y46*%
G04 Gerber Fmt 4.6, Leading zero omitted, Abs format (unit mm)*
G04 Created by KiCad (PCBNEW 8.0.7) date 2025-04-21 23:50:55*
%MOMM*%
%LPD*%
G01*
G04 APERTURE LIST*
G04 Aperture macros list*
%AMRoundRect*
0 Rectangle with rounded corners*
0 $1 Rounding radius*
0 $2 $3 $4 $5 $6 $7 $8 $9 X,Y pos of 4 corners*
0 Add a 4 corners polygon primitive as box body*
4,1,4,$2,$3,$4,$5,$6,$7,$8,$9,$2,$3,0*
0 Add four circle primitives for the rounded corners*
1,1,$1+$1,$2,$3*
1,1,$1+$1,$4,$5*
1,1,$1+$1,$6,$7*
1,1,$1+$1,$8,$9*
0 Add four rect primitives between the rounded corners*
20,1,$1+$1,$2,$3,$4,$5,0*
20,1,$1+$1,$4,$5,$6,$7,0*
20,1,$1+$1,$6,$7,$8,$9,0*
20,1,$1+$1,$8,$9,$2,$3,0*%
G04 Aperture macros list end*
%TA.AperFunction,SMDPad,CuDef*%
%ADD10R,1.000000X0.800000*%
%TD*%
%TA.AperFunction,SMDPad,CuDef*%
%ADD11R,0.700000X1.500000*%
%TD*%
%TA.AperFunction,SMDPad,CuDef*%
%ADD12RoundRect,0.135000X0.135000X0.185000X-0.135000X0.185000X-0.135000X-0.185000X0.135000X-0.185000X0*%
%TD*%
%TA.AperFunction,SMDPad,CuDef*%
%ADD13RoundRect,0.135000X-0.135000X-0.185000X0.135000X-0.185000X0.135000X0.185000X-0.135000X0.185000X0*%
%TD*%
%TA.AperFunction,ComponentPad*%
%ADD14O,1.700000X1.700000*%
%TD*%
%TA.AperFunction,ComponentPad*%
%ADD15R,1.700000X1.700000*%
%TD*%
%TA.AperFunction,SMDPad,CuDef*%
%ADD16RoundRect,0.218750X0.026517X-0.335876X0.335876X-0.026517X-0.026517X0.335876X-0.335876X0.026517X0*%
%TD*%
%TA.AperFunction,SMDPad,CuDef*%
%ADD17RoundRect,0.200000X0.200000X0.275000X-0.200000X0.275000X-0.200000X-0.275000X0.200000X-0.275000X0*%
%TD*%
%TA.AperFunction,SMDPad,CuDef*%
%ADD18RoundRect,0.200000X-0.200000X-0.275000X0.200000X-0.275000X0.200000X0.275000X-0.200000X0.275000X0*%
%TD*%
%TA.AperFunction,SMDPad,CuDef*%
%ADD19R,0.800000X1.100000*%
%TD*%
%TA.AperFunction,SMDPad,CuDef*%
%ADD20R,0.900000X1.700000*%
%TD*%
%TA.AperFunction,SMDPad,CuDef*%
%ADD21RoundRect,0.225000X0.225000X0.250000X-0.225000X0.250000X-0.225000X-0.250000X0.225000X-0.250000X0*%
%TD*%
%TA.AperFunction,SMDPad,CuDef*%
%ADD22RoundRect,0.062500X-0.375000X-0.062500X0.375000X-0.062500X0.375000X0.062500X-0.375000X0.062500X0*%
%TD*%
%TA.AperFunction,SMDPad,CuDef*%
%ADD23RoundRect,0.062500X-0.062500X-0.375000X0.062500X-0.375000X0.062500X0.375000X-0.062500X0.375000X0*%
%TD*%
%TA.AperFunction,HeatsinkPad*%
%ADD24R,3.450000X3.450000*%
%TD*%
%TA.AperFunction,SMDPad,CuDef*%
%ADD25RoundRect,0.218750X-0.218750X-0.256250X0.218750X-0.256250X0.218750X0.256250X-0.218750X0.256250X0*%
%TD*%
%TA.AperFunction,SMDPad,CuDef*%
%ADD26RoundRect,0.218750X0.218750X0.256250X-0.218750X0.256250X-0.218750X-0.256250X0.218750X-0.256250X0*%
%TD*%
%TA.AperFunction,ComponentPad*%
%ADD27R,2.000000X2.000000*%
%TD*%
%TA.AperFunction,ComponentPad*%
%ADD28C,2.000000*%
%TD*%
%TA.AperFunction,ViaPad*%
%ADD29C,0.700000*%
%TD*%
%TA.AperFunction,Conductor*%
%ADD30C,0.300000*%
%TD*%
%TA.AperFunction,Conductor*%
%ADD31C,0.500000*%
%TD*%
G04 APERTURE END LIST*
D10*
%TO.P,SW2,*%
%TO.N,*%
X174600000Y-77910000D03*
X174600000Y-75700000D03*
X167300000Y-77910000D03*
X167300000Y-75700000D03*
D11*
%TO.P,SW2,1,A*%
%TO.N,unconnected-(SW2-A-Pad1)*%
X173200000Y-78560000D03*
%TO.P,SW2,2,B*%
%TO.N,+3.3V*%
X170200000Y-78560000D03*
%TO.P,SW2,3,C*%
%TO.N,Net-(BT1-+)*%
X168700000Y-78560000D03*
%TD*%
D12*
%TO.P,R11,1*%
%TO.N,Net-(D11-K)*%
X120760000Y-77800000D03*
%TO.P,R11,2*%
%TO.N,Net-(J6-Pin_8)*%
X119740000Y-77800000D03*
%TD*%
%TO.P,R10,1*%
%TO.N,Net-(D12-K)*%
X122560000Y-79600000D03*
%TO.P,R10,2*%
%TO.N,Net-(J6-Pin_7)*%
X121540000Y-79600000D03*
%TD*%
%TO.P,R9,1*%
%TO.N,Net-(D13-K)*%
X122560000Y-83000000D03*
%TO.P,R9,2*%
%TO.N,Net-(J6-Pin_6)*%
X121540000Y-83000000D03*
%TD*%
%TO.P,R8,1*%
%TO.N,Net-(D14-K)*%
X122560000Y-86800000D03*
%TO.P,R8,2*%
%TO.N,Net-(J6-Pin_5)*%
X121540000Y-86800000D03*
%TD*%
D13*
%TO.P,R7,1*%
%TO.N,Net-(J6-Pin_4)*%
X121540000Y-90400000D03*
%TO.P,R7,2*%
%TO.N,Net-(D15-K)*%
X122560000Y-90400000D03*
%TD*%
%TO.P,R6,1*%
%TO.N,Net-(J6-Pin_3)*%
X121540000Y-93800000D03*
%TO.P,R6,2*%
%TO.N,Net-(D16-K)*%
X122560000Y-93800000D03*
%TD*%
%TO.P,R5,1*%
%TO.N,Net-(J6-Pin_2)*%
X121540000Y-98000000D03*
%TO.P,R5,2*%
%TO.N,Net-(D17-K)*%
X122560000Y-98000000D03*
%TD*%
%TO.P,R4,1*%
%TO.N,Net-(J6-Pin_1)*%
X119540000Y-102400000D03*
%TO.P,R4,2*%
%TO.N,Net-(D10-K)*%
X120560000Y-102400000D03*
%TD*%
D14*
%TO.P,J6,8,Pin_8*%
%TO.N,Net-(J6-Pin_8)*%
X119200000Y-81133153D03*
%TO.P,J6,7,Pin_7*%
%TO.N,Net-(J6-Pin_7)*%
X119200000Y-83673153D03*
%TO.P,J6,6,Pin_6*%
%TO.N,Net-(J6-Pin_6)*%
X119200000Y-86213153D03*
%TO.P,J6,5,Pin_5*%
%TO.N,Net-(J6-Pin_5)*%
X119200000Y-88753153D03*
%TO.P,J6,4,Pin_4*%
%TO.N,Net-(J6-Pin_4)*%
X119200000Y-91293153D03*
%TO.P,J6,3,Pin_3*%
%TO.N,Net-(J6-Pin_3)*%
X119200000Y-93833153D03*
%TO.P,J6,2,Pin_2*%
%TO.N,Net-(J6-Pin_2)*%
X119200000Y-96373153D03*
D15*
%TO.P,J6,1,Pin_1*%
%TO.N,Net-(J6-Pin_1)*%
X119200000Y-98913153D03*
%TD*%
%TO.P,J5,1,Pin_1*%
%TO.N,Net-(D38-A)*%
X149710653Y-99090000D03*
D14*
%TO.P,J5,2,Pin_2*%
%TO.N,Net-(D37-A)*%
X149710653Y-96550000D03*
%TO.P,J5,3,Pin_3*%
%TO.N,Net-(D36-A)*%
X149710653Y-94010000D03*
%TO.P,J5,4,Pin_4*%
%TO.N,Net-(D35-A)*%
X149710653Y-91470000D03*
%TO.P,J5,5,Pin_5*%
%TO.N,Net-(D27-A)*%
X149710653Y-88930000D03*
%TO.P,J5,6,Pin_6*%
%TO.N,Net-(D19-A)*%
X149710653Y-86390000D03*
%TO.P,J5,7,Pin_7*%
%TO.N,Net-(D11-A)*%
X149710653Y-83850000D03*
%TO.P,J5,8,Pin_8*%
%TO.N,Net-(D10-A)*%
X149710653Y-81310000D03*
%TD*%
D16*
%TO.P,D66,2,A*%
%TO.N,Net-(D38-A)*%
X146313694Y-102100000D03*
%TO.P,D66,1,K*%
%TO.N,Net-(D10-K)*%
X145200000Y-103213694D03*
%TD*%
%TO.P,D65,2,A*%
%TO.N,Net-(D37-A)*%
X143006847Y-102043153D03*
%TO.P,D65,1,K*%
%TO.N,Net-(D10-K)*%
X141893153Y-103156847D03*
%TD*%
%TO.P,D64,2,A*%
%TO.N,Net-(D36-A)*%
X139756847Y-102293153D03*
%TO.P,D64,1,K*%
%TO.N,Net-(D10-K)*%
X138643153Y-103406847D03*
%TD*%
%TO.P,D63,2,A*%
%TO.N,Net-(D35-A)*%
X136506847Y-102293153D03*
%TO.P,D63,1,K*%
%TO.N,Net-(D10-K)*%
X135393153Y-103406847D03*
%TD*%
%TO.P,D62,2,A*%
%TO.N,Net-(D38-A)*%
X146256847Y-98493153D03*
%TO.P,D62,1,K*%
%TO.N,Net-(D17-K)*%
X145143153Y-99606847D03*
%TD*%
%TO.P,D61,2,A*%
%TO.N,Net-(D37-A)*%
X143006847Y-98493153D03*
%TO.P,D61,1,K*%
%TO.N,Net-(D17-K)*%
X141893153Y-99606847D03*
%TD*%
%TO.P,D60,2,A*%
%TO.N,Net-(D36-A)*%
X139756847Y-98493153D03*
%TO.P,D60,1,K*%
%TO.N,Net-(D17-K)*%
X138643153Y-99606847D03*
%TD*%
%TO.P,D59,2,A*%
%TO.N,Net-(D35-A)*%
X136506847Y-98493153D03*
%TO.P,D59,1,K*%
%TO.N,Net-(D17-K)*%
X135393153Y-99606847D03*
%TD*%
%TO.P,D58,2,A*%
%TO.N,Net-(D38-A)*%
X146256847Y-94493153D03*
%TO.P,D58,1,K*%
%TO.N,Net-(D16-K)*%
X145143153Y-95606847D03*
%TD*%
%TO.P,D57,2,A*%
%TO.N,Net-(D37-A)*%
X143006847Y-94493153D03*
%TO.P,D57,1,K*%
%TO.N,Net-(D16-K)*%
X141893153Y-95606847D03*
%TD*%
%TO.P,D56,2,A*%
%TO.N,Net-(D36-A)*%
X139756847Y-94493153D03*
%TO.P,D56,1,K*%
%TO.N,Net-(D16-K)*%
X138643153Y-95606847D03*
%TD*%
%TO.P,D55,2,A*%
%TO.N,Net-(D35-A)*%
X136506847Y-94493153D03*
%TO.P,D55,1,K*%
%TO.N,Net-(D16-K)*%
X135393153Y-95606847D03*
%TD*%
%TO.P,D54,2,A*%
%TO.N,Net-(D38-A)*%
X146256847Y-90993153D03*
%TO.P,D54,1,K*%
%TO.N,Net-(D15-K)*%
X145143153Y-92106847D03*
%TD*%
%TO.P,D53,2,A*%
%TO.N,Net-(D37-A)*%
X143006847Y-90993153D03*
%TO.P,D53,1,K*%
%TO.N,Net-(D15-K)*%
X141893153Y-92106847D03*
%TD*%
%TO.P,D52,2,A*%
%TO.N,Net-(D36-A)*%
X139756847Y-90993153D03*
%TO.P,D52,1,K*%
%TO.N,Net-(D15-K)*%
X138643153Y-92106847D03*
%TD*%
%TO.P,D51,2,A*%
%TO.N,Net-(D35-A)*%
X136506847Y-90993153D03*
%TO.P,D51,1,K*%
%TO.N,Net-(D15-K)*%
X135393153Y-92106847D03*
%TD*%
%TO.P,D50,2,A*%
%TO.N,Net-(D38-A)*%
X146200000Y-87300000D03*
%TO.P,D50,1,K*%
%TO.N,Net-(D14-K)*%
X145086306Y-88413694D03*
%TD*%
%TO.P,D49,2,A*%
%TO.N,Net-(D37-A)*%
X142950000Y-87300000D03*
%TO.P,D49,1,K*%
%TO.N,Net-(D14-K)*%
X141836306Y-88413694D03*
%TD*%
%TO.P,D48,2,A*%
%TO.N,Net-(D36-A)*%
X139813694Y-87300000D03*
%TO.P,D48,1,K*%
%TO.N,Net-(D14-K)*%
X138700000Y-88413694D03*
%TD*%
%TO.P,D47,2,A*%
%TO.N,Net-(D35-A)*%
X136700000Y-87300000D03*
%TO.P,D47,1,K*%
%TO.N,Net-(D14-K)*%
X135586306Y-88413694D03*
%TD*%
%TO.P,D46,2,A*%
%TO.N,Net-(D38-A)*%
X146200000Y-83443153D03*
%TO.P,D46,1,K*%
%TO.N,Net-(D13-K)*%
X145086306Y-84556847D03*
%TD*%
%TO.P,D45,2,A*%
%TO.N,Net-(D37-A)*%
X142950000Y-83300000D03*
%TO.P,D45,1,K*%
%TO.N,Net-(D13-K)*%
X141836306Y-84413694D03*
%TD*%
%TO.P,D44,2,A*%
%TO.N,Net-(D36-A)*%
X139813694Y-83436306D03*
%TO.P,D44,1,K*%
%TO.N,Net-(D13-K)*%
X138700000Y-84550000D03*
%TD*%
%TO.P,D43,2,A*%
%TO.N,Net-(D35-A)*%
X136700000Y-83550000D03*
%TO.P,D43,1,K*%
%TO.N,Net-(D13-K)*%
X135586306Y-84663694D03*
%TD*%
%TO.P,D42,2,A*%
%TO.N,Net-(D38-A)*%
X146200000Y-80300000D03*
%TO.P,D42,1,K*%
%TO.N,Net-(D12-K)*%
X145086306Y-81413694D03*
%TD*%
%TO.P,D41,2,A*%
%TO.N,Net-(D37-A)*%
X142950000Y-80300000D03*
%TO.P,D41,1,K*%
%TO.N,Net-(D12-K)*%
X141836306Y-81413694D03*
%TD*%
%TO.P,D40,2,A*%
%TO.N,Net-(D36-A)*%
X139950000Y-80300000D03*
%TO.P,D40,1,K*%
%TO.N,Net-(D12-K)*%
X138836306Y-81413694D03*
%TD*%
%TO.P,D39,2,A*%
%TO.N,Net-(D35-A)*%
X136700000Y-80300000D03*
%TO.P,D39,1,K*%
%TO.N,Net-(D12-K)*%
X135586306Y-81413694D03*
%TD*%
%TO.P,D38,1,K*%
%TO.N,Net-(D11-K)*%
X145086306Y-78106846D03*
%TO.P,D38,2,A*%
%TO.N,Net-(D38-A)*%
X146200000Y-76993152D03*
%TD*%
%TO.P,D37,1,K*%
%TO.N,Net-(D11-K)*%
X141836306Y-78050000D03*
%TO.P,D37,2,A*%
%TO.N,Net-(D37-A)*%
X142950000Y-76936306D03*
%TD*%
%TO.P,D36,1,K*%
%TO.N,Net-(D11-K)*%
X138774458Y-78106847D03*
%TO.P,D36,2,A*%
%TO.N,Net-(D36-A)*%
X139888152Y-76993153D03*
%TD*%
%TO.P,D35,2,A*%
%TO.N,Net-(D35-A)*%
X136700000Y-77050000D03*
%TO.P,D35,1,K*%
%TO.N,Net-(D11-K)*%
X135586306Y-78163694D03*
%TD*%
%TO.P,D34,2,A*%
%TO.N,Net-(D27-A)*%
X133506847Y-102316847D03*
%TO.P,D34,1,K*%
%TO.N,Net-(D10-K)*%
X132393153Y-103430541D03*
%TD*%
%TO.P,D33,2,A*%
%TO.N,Net-(D27-A)*%
X133506847Y-98581847D03*
%TO.P,D33,1,K*%
%TO.N,Net-(D17-K)*%
X132393153Y-99695541D03*
%TD*%
%TO.P,D32,2,A*%
%TO.N,Net-(D27-A)*%
X133506847Y-94460000D03*
%TO.P,D32,1,K*%
%TO.N,Net-(D16-K)*%
X132393153Y-95573694D03*
%TD*%
%TO.P,D31,2,A*%
%TO.N,Net-(D27-A)*%
X133506847Y-90960000D03*
%TO.P,D31,1,K*%
%TO.N,Net-(D15-K)*%
X132393153Y-92073694D03*
%TD*%
%TO.P,D30,2,A*%
%TO.N,Net-(D27-A)*%
X133506847Y-87230000D03*
%TO.P,D30,1,K*%
%TO.N,Net-(D14-K)*%
X132393153Y-88343694D03*
%TD*%
%TO.P,D29,2,A*%
%TO.N,Net-(D27-A)*%
X133506847Y-83455000D03*
%TO.P,D29,1,K*%
%TO.N,Net-(D13-K)*%
X132393153Y-84568694D03*
%TD*%
%TO.P,D28,2,A*%
%TO.N,Net-(D27-A)*%
X133506847Y-80210000D03*
%TO.P,D28,1,K*%
%TO.N,Net-(D12-K)*%
X132393153Y-81323694D03*
%TD*%
%TO.P,D27,2,A*%
%TO.N,Net-(D27-A)*%
X133506847Y-76885000D03*
%TO.P,D27,1,K*%
%TO.N,Net-(D11-K)*%
X132393153Y-77998694D03*
%TD*%
%TO.P,D26,2,A*%
%TO.N,Net-(D19-A)*%
X130351194Y-102035000D03*
%TO.P,D26,1,K*%
%TO.N,Net-(D10-K)*%
X129237500Y-103148694D03*
%TD*%
%TO.P,D25,2,A*%
%TO.N,Net-(D19-A)*%
X130351194Y-98300000D03*
%TO.P,D25,1,K*%
%TO.N,Net-(D17-K)*%
X129237500Y-99413694D03*
%TD*%
%TO.P,D24,1,K*%
%TO.N,Net-(D16-K)*%
X129237500Y-95671847D03*
%TO.P,D24,2,A*%
%TO.N,Net-(D19-A)*%
X130351194Y-94558153D03*
%TD*%
%TO.P,D23,2,A*%
%TO.N,Net-(D19-A)*%
X130351194Y-91058153D03*
%TO.P,D23,1,K*%
%TO.N,Net-(D15-K)*%
X129237500Y-92171847D03*
%TD*%
%TO.P,D22,2,A*%
%TO.N,Net-(D19-A)*%
X130351194Y-87328153D03*
%TO.P,D22,1,K*%
%TO.N,Net-(D14-K)*%
X129237500Y-88441847D03*
%TD*%
%TO.P,D21,2,A*%
%TO.N,Net-(D19-A)*%
X130351194Y-83553153D03*
%TO.P,D21,1,K*%
%TO.N,Net-(D13-K)*%
X129237500Y-84666847D03*
%TD*%
%TO.P,D20,2,A*%
%TO.N,Net-(D19-A)*%
X130351194Y-80308153D03*
%TO.P,D20,1,K*%
%TO.N,Net-(D12-K)*%
X129237500Y-81421847D03*
%TD*%
%TO.P,D19,2,A*%
%TO.N,Net-(D19-A)*%
X130351194Y-76983153D03*
%TO.P,D19,1,K*%
%TO.N,Net-(D11-K)*%
X129237500Y-78096847D03*
%TD*%
%TO.P,D18,2,A*%
%TO.N,Net-(D11-A)*%
X127406847Y-102043153D03*
%TO.P,D18,1,K*%
%TO.N,Net-(D10-K)*%
X126293153Y-103156847D03*
%TD*%
%TO.P,D17,2,A*%
%TO.N,Net-(D11-A)*%
X127406847Y-98243153D03*
%TO.P,D17,1,K*%
%TO.N,Net-(D17-K)*%
X126293153Y-99356847D03*
%TD*%
%TO.P,D16,2,A*%
%TO.N,Net-(D11-A)*%
X127449347Y-94353153D03*
%TO.P,D16,1,K*%
%TO.N,Net-(D16-K)*%
X126335653Y-95466847D03*
%TD*%
%TO.P,D15,1,K*%
%TO.N,Net-(D15-K)*%
X126143153Y-92106847D03*
%TO.P,D15,2,A*%
%TO.N,Net-(D11-A)*%
X127256847Y-90993153D03*
%TD*%
%TO.P,D14,2,A*%
%TO.N,Net-(D11-A)*%
X127449347Y-87243153D03*
%TO.P,D14,1,K*%
%TO.N,Net-(D14-K)*%
X126335653Y-88356847D03*
%TD*%
%TO.P,D13,2,A*%
%TO.N,Net-(D11-A)*%
X127256847Y-83493153D03*
%TO.P,D13,1,K*%
%TO.N,Net-(D13-K)*%
X126143153Y-84606847D03*
%TD*%
%TO.P,D12,2,A*%
%TO.N,Net-(D11-A)*%
X127256847Y-80248153D03*
%TO.P,D12,1,K*%
%TO.N,Net-(D12-K)*%
X126143153Y-81361847D03*
%TD*%
%TO.P,D11,2,A*%
%TO.N,Net-(D11-A)*%
X127256847Y-76923153D03*
%TO.P,D11,1,K*%
%TO.N,Net-(D11-K)*%
X126143153Y-78036847D03*
%TD*%
%TO.P,D10,2,A*%
%TO.N,Net-(D10-A)*%
X124126194Y-102175000D03*
%TO.P,D10,1,K*%
%TO.N,Net-(D10-K)*%
X123012500Y-103288694D03*
%TD*%
%TO.P,D9,2,A*%
%TO.N,Net-(D10-A)*%
X124126194Y-98440000D03*
%TO.P,D9,1,K*%
%TO.N,Net-(D17-K)*%
X123012500Y-99553694D03*
%TD*%
%TO.P,D8,2,A*%
%TO.N,Net-(D10-A)*%
X124126194Y-94493153D03*
%TO.P,D8,1,K*%
%TO.N,Net-(D16-K)*%
X123012500Y-95606847D03*
%TD*%
%TO.P,D7,2,A*%
%TO.N,Net-(D10-A)*%
X124126194Y-90818153D03*
%TO.P,D7,1,K*%
%TO.N,Net-(D15-K)*%
X123012500Y-91931847D03*
%TD*%
%TO.P,D6,2,A*%
%TO.N,Net-(D10-A)*%
X124126194Y-87243153D03*
%TO.P,D6,1,K*%
%TO.N,Net-(D14-K)*%
X123012500Y-88356847D03*
%TD*%
%TO.P,D5,2,A*%
%TO.N,Net-(D10-A)*%
X124126194Y-83443153D03*
%TO.P,D5,1,K*%
%TO.N,Net-(D13-K)*%
X123012500Y-84556847D03*
%TD*%
%TO.P,D4,2,A*%
%TO.N,Net-(D10-A)*%
X124126194Y-80068153D03*
%TO.P,D4,1,K*%
%TO.N,Net-(D12-K)*%
X123012500Y-81181847D03*
%TD*%
%TO.P,D3,2,A*%
%TO.N,Net-(D10-A)*%
X124126194Y-76743153D03*
%TO.P,D3,1,K*%
%TO.N,Net-(D11-K)*%
X123012500Y-77856847D03*
%TD*%
D14*
%TO.P,J3,4,Pin_4*%
%TO.N,GND*%
X177370000Y-77300000D03*
%TO.P,J3,3,Pin_3*%
%TO.N,Net-(J3-Pin_3)*%
X179910000Y-77300000D03*
%TO.P,J3,2,Pin_2*%
%TO.N,Net-(J3-Pin_2)*%
X182450000Y-77300000D03*
D15*
%TO.P,J3,1,Pin_1*%
%TO.N,+3.3V*%
X184990000Y-77300000D03*
%TD*%
D14*
%TO.P,J2,8,Pin_8*%
%TO.N,Net-(J2-Pin_8)*%
X186950000Y-81180000D03*
%TO.P,J2,7,Pin_7*%
%TO.N,Net-(J2-Pin_7)*%
X186950000Y-83720000D03*
%TO.P,J2,6,Pin_6*%
%TO.N,Net-(J2-Pin_6)*%
X186950000Y-86260000D03*
%TO.P,J2,5,Pin_5*%
%TO.N,Net-(J2-Pin_5)*%
X186950000Y-88800000D03*
%TO.P,J2,4,Pin_4*%
%TO.N,Net-(J2-Pin_4)*%
X186950000Y-91340000D03*
%TO.P,J2,3,Pin_3*%
%TO.N,Net-(J2-Pin_3)*%
X186950000Y-93880000D03*
%TO.P,J2,2,Pin_2*%
%TO.N,Net-(J2-Pin_2)*%
X186950000Y-96420000D03*
D15*
%TO.P,J2,1,Pin_1*%
%TO.N,Net-(J2-Pin_1)*%
X186950000Y-98960000D03*
%TD*%
D17*
%TO.P,R2,1*%
%TO.N,Net-(D1-K)*%
X174275000Y-82800000D03*
%TO.P,R2,2*%
%TO.N,GND*%
X172625000Y-82800000D03*
%TD*%
D18*
%TO.P,R3,2*%
%TO.N,Net-(D2-K)*%
X168100000Y-87300000D03*
%TO.P,R3,1*%
%TO.N,GND*%
X166450000Y-87300000D03*
%TD*%
D19*
%TO.P,SW1,3,C*%
%TO.N,+3.3V*%
X166100000Y-82480000D03*
D20*
%TO.P,SW1,2,B*%
%TO.N,Net-(SW1-B)*%
X164400000Y-84120000D03*
%TO.P,SW1,1,A*%
%TO.N,GND*%
X167800000Y-84120000D03*
%TD*%
D21*
%TO.P,C3,2*%
%TO.N,GND*%
X166675000Y-91300000D03*
%TO.P,C3,1*%
%TO.N,Net-(U1-NRST)*%
X168225000Y-91300000D03*
%TD*%
D18*
%TO.P,R1,2*%
%TO.N,Net-(U1-BOOT0)*%
X171100000Y-85300000D03*
%TO.P,R1,1*%
%TO.N,Net-(SW1-B)*%
X169450000Y-85300000D03*
%TD*%
D19*
%TO.P,SW3,3,C*%
%TO.N,GND*%
X173950000Y-99980000D03*
D20*
%TO.P,SW3,2,B*%
%TO.N,Net-(SW3-B)*%
X172250000Y-101620000D03*
%TO.P,SW3,1,A*%
%TO.N,unconnected-(SW3-A-Pad1)*%
X175650000Y-101620000D03*
%TD*%
D22*
%TO.P,U1,1,VDD*%
%TO.N,+3.3V*%
X171012500Y-89900000D03*
%TO.P,U1,2,PF0*%
%TO.N,Net-(SW3-B)*%
X171012500Y-90400000D03*
%TO.P,U1,3,PF1*%
%TO.N,Net-(SW4-B)*%
X171012500Y-90900000D03*
%TO.P,U1,4,NRST*%
%TO.N,Net-(U1-NRST)*%
X171012500Y-91400000D03*
%TO.P,U1,5,VDDA*%
%TO.N,+3.3V*%
X171012500Y-91900000D03*
%TO.P,U1,6,PA0*%
%TO.N,Net-(J1-Pin_1)*%
X171012500Y-92400000D03*
%TO.P,U1,7,PA1*%
%TO.N,Net-(J1-Pin_2)*%
X171012500Y-92900000D03*
%TO.P,U1,8,PA2*%
%TO.N,Net-(J1-Pin_3)*%
X171012500Y-93400000D03*
D23*
%TO.P,U1,9,PA3*%
%TO.N,Net-(J1-Pin_4)*%
X171700000Y-94087500D03*
%TO.P,U1,10,PA4*%
%TO.N,Net-(J1-Pin_5)*%
X172200000Y-94087500D03*
%TO.P,U1,11,PA5*%
%TO.N,Net-(J1-Pin_6)*%
X172700000Y-94087500D03*
%TO.P,U1,12,PA6*%
%TO.N,Net-(J1-Pin_7)*%
X173200000Y-94087500D03*
%TO.P,U1,13,PA7*%
%TO.N,Net-(J1-Pin_8)*%
X173700000Y-94087500D03*
%TO.P,U1,14,PB0*%
%TO.N,Net-(J2-Pin_1)*%
X174200000Y-94087500D03*
%TO.P,U1,15,PB1*%
%TO.N,Net-(J2-Pin_2)*%
X174700000Y-94087500D03*
%TO.P,U1,16,PB2*%
%TO.N,Net-(J2-Pin_3)*%
X175200000Y-94087500D03*
D22*
%TO.P,U1,17,VDD*%
%TO.N,+3.3V*%
X175887500Y-93400000D03*
%TO.P,U1,18,PA8*%
%TO.N,unconnected-(U1-PA8-Pad18)*%
X175887500Y-92900000D03*
%TO.P,U1,19,PA9*%
%TO.N,Net-(J4-Pin_2)*%
X175887500Y-92400000D03*
%TO.P,U1,20,PA10*%
%TO.N,Net-(J4-Pin_3)*%
X175887500Y-91900000D03*
%TO.P,U1,21,PA11*%
%TO.N,unconnected-(U1-PA11-Pad21)*%
X175887500Y-91400000D03*
%TO.P,U1,22,PA12*%
%TO.N,unconnected-(U1-PA12-Pad22)*%
X175887500Y-90900000D03*
%TO.P,U1,23,PA13*%
%TO.N,Net-(J3-Pin_2)*%
X175887500Y-90400000D03*
%TO.P,U1,24,PA14*%
%TO.N,Net-(J3-Pin_3)*%
X175887500Y-89900000D03*
D23*
%TO.P,U1,25,PA15*%
%TO.N,unconnected-(U1-PA15-Pad25)*%
X175200000Y-89212500D03*
%TO.P,U1,26,PB3*%
%TO.N,Net-(J2-Pin_4)*%
X174700000Y-89212500D03*
%TO.P,U1,27,PB4*%
%TO.N,Net-(J2-Pin_5)*%
X174200000Y-89212500D03*
%TO.P,U1,28,PB5*%
%TO.N,Net-(J2-Pin_6)*%
X173700000Y-89212500D03*
%TO.P,U1,29,PB6*%
%TO.N,Net-(J2-Pin_7)*%
X173200000Y-89212500D03*
%TO.P,U1,30,PB7*%
%TO.N,Net-(J2-Pin_8)*%
X172700000Y-89212500D03*
%TO.P,U1,31,BOOT0*%
%TO.N,Net-(U1-BOOT0)*%
X172200000Y-89212500D03*
%TO.P,U1,32,PB8*%
%TO.N,Net-(D2-A)*%
X171700000Y-89212500D03*
D24*
%TO.P,U1,33,VSS*%
%TO.N,GND*%
X173450000Y-91650000D03*
%TD*%
D15*
%TO.P,J1,1,Pin_1*%
%TO.N,Net-(J1-Pin_1)*%
X156450000Y-81260000D03*
D14*
%TO.P,J1,2,Pin_2*%
%TO.N,Net-(J1-Pin_2)*%
X156450000Y-83800000D03*
%TO.P,J1,3,Pin_3*%
%TO.N,Net-(J1-Pin_3)*%
X156450000Y-86340000D03*
%TO.P,J1,4,Pin_4*%
%TO.N,Net-(J1-Pin_4)*%
X156450000Y-88880000D03*
%TO.P,J1,5,Pin_5*%
%TO.N,Net-(J1-Pin_5)*%
X156450000Y-91420000D03*
%TO.P,J1,6,Pin_6*%
%TO.N,Net-(J1-Pin_6)*%
X156450000Y-93960000D03*
%TO.P,J1,7,Pin_7*%
%TO.N,Net-(J1-Pin_7)*%
X156450000Y-96500000D03*
%TO.P,J1,8,Pin_8*%
%TO.N,Net-(J1-Pin_8)*%
X156450000Y-99040000D03*
%TD*%
D21*
%TO.P,C1,2*%
%TO.N,GND*%
X166550000Y-88800000D03*
%TO.P,C1,1*%
%TO.N,+3.3V*%
X168100000Y-88800000D03*
%TD*%
D14*
%TO.P,J4,4,Pin_4*%
%TO.N,GND*%
X182950000Y-88020000D03*
%TO.P,J4,3,Pin_3*%
%TO.N,Net-(J4-Pin_3)*%
X182950000Y-90560000D03*
%TO.P,J4,2,Pin_2*%
%TO.N,Net-(J4-Pin_2)*%
X182950000Y-93100000D03*
D15*
%TO.P,J4,1,Pin_1*%
%TO.N,+3.3V*%
X182950000Y-95640000D03*
%TD*%
D25*
%TO.P,D2,2,A*%
%TO.N,Net-(D2-A)*%
X171100000Y-87300000D03*
%TO.P,D2,1,K*%
%TO.N,Net-(D2-K)*%
X169525000Y-87300000D03*
%TD*%
D21*
%TO.P,C2,2*%
%TO.N,GND*%
X166550000Y-92800000D03*
%TO.P,C2,1*%
%TO.N,+3.3V*%
X168100000Y-92800000D03*
%TD*%
D26*
%TO.P,D1,1,K*%
%TO.N,Net-(D1-K)*%
X174200000Y-80800000D03*
%TO.P,D1,2,A*%
%TO.N,+3.3V*%
X172625000Y-80800000D03*
%TD*%
D19*
%TO.P,SW4,3,C*%
%TO.N,GND*%
X163450000Y-99980000D03*
D20*
%TO.P,SW4,2,B*%
%TO.N,Net-(SW4-B)*%
X161750000Y-101620000D03*
%TO.P,SW4,1,A*%
%TO.N,unconnected-(SW4-A-Pad1)*%
X165150000Y-101620000D03*
%TD*%
D27*
%TO.P,BT1,1,+*%
%TO.N,Net-(BT1-+)*%
X169450000Y-81300000D03*
D28*
%TO.P,BT1,2,-*%
%TO.N,GND*%
X169450000Y-102100000D03*
%TD*%
D29*
%TO.N,Net-(D38-A)*%
X146313694Y-102100000D03*
%TO.N,Net-(D37-A)*%
X143006847Y-102043153D03*
%TO.N,Net-(D36-A)*%
X139756847Y-102293153D03*
%TO.N,Net-(D35-A)*%
X136506847Y-102293153D03*
%TO.N,Net-(D27-A)*%
X133506847Y-102316847D03*
%TO.N,Net-(D19-A)*%
X130351194Y-102035000D03*
%TO.N,Net-(D11-A)*%
X127406847Y-102043153D03*
%TO.N,Net-(D10-A)*%
X124126194Y-102175000D03*
%TO.N,Net-(D11-A)*%
X127406847Y-98243153D03*
%TO.N,Net-(D38-A)*%
X146256847Y-98493153D03*
%TO.N,Net-(D37-A)*%
X143006847Y-98493153D03*
%TO.N,Net-(D36-A)*%
X139756847Y-98493153D03*
%TO.N,Net-(D35-A)*%
X136506847Y-98493153D03*
%TO.N,Net-(D27-A)*%
X133506847Y-98581847D03*
%TO.N,Net-(D19-A)*%
X130351194Y-98300000D03*
%TO.N,Net-(D10-A)*%
X124126194Y-98440000D03*
X124126194Y-94493153D03*
%TO.N,Net-(D11-A)*%
X127449347Y-94353153D03*
%TO.N,Net-(D19-A)*%
X130351194Y-94558153D03*
%TO.N,Net-(D27-A)*%
X133506847Y-94460000D03*
%TO.N,Net-(D35-A)*%
X136506847Y-94493153D03*
%TO.N,Net-(D36-A)*%
X139756847Y-94493153D03*
%TO.N,Net-(D37-A)*%
X143006847Y-94493153D03*
%TO.N,Net-(D38-A)*%
X146256847Y-94493153D03*
X146256847Y-90993153D03*
%TO.N,Net-(D37-A)*%
X143006847Y-90993153D03*
%TO.N,Net-(D36-A)*%
X139756847Y-90993153D03*
%TO.N,Net-(D35-A)*%
X136506847Y-90993153D03*
%TO.N,Net-(D27-A)*%
X133506847Y-90960000D03*
%TO.N,Net-(D19-A)*%
X130351194Y-91058153D03*
%TO.N,Net-(D11-A)*%
X127256847Y-90993153D03*
%TO.N,Net-(D10-A)*%
X124126194Y-90818153D03*
X124126194Y-87243153D03*
%TO.N,Net-(D11-A)*%
X127449347Y-87243153D03*
%TO.N,Net-(D19-A)*%
X130351194Y-87328153D03*
%TO.N,Net-(D27-A)*%
X133506847Y-87230000D03*
%TO.N,Net-(D35-A)*%
X136700000Y-87300000D03*
%TO.N,Net-(D36-A)*%
X139813694Y-87300000D03*
%TO.N,Net-(D37-A)*%
X142950000Y-87300000D03*
%TO.N,Net-(D38-A)*%
X146200000Y-87300000D03*
X146200000Y-83443153D03*
%TO.N,Net-(D37-A)*%
X142950000Y-83300000D03*
%TO.N,Net-(D36-A)*%
X139813694Y-83436306D03*
%TO.N,Net-(D35-A)*%
X136700000Y-83550000D03*
%TO.N,Net-(D27-A)*%
X133506847Y-83455000D03*
%TO.N,Net-(D19-A)*%
X130351194Y-83553153D03*
%TO.N,Net-(D11-A)*%
X127256847Y-83493153D03*
%TO.N,Net-(D10-A)*%
X124126194Y-83443153D03*
X124126194Y-80068153D03*
%TO.N,Net-(D11-A)*%
X127256847Y-80248153D03*
%TO.N,Net-(D19-A)*%
X130351194Y-80308153D03*
%TO.N,Net-(D35-A)*%
X136700000Y-80300000D03*
%TO.N,Net-(D27-A)*%
X133506847Y-80210000D03*
%TO.N,Net-(D36-A)*%
X139950000Y-80300000D03*
%TO.N,Net-(D37-A)*%
X142950000Y-80300000D03*
%TO.N,Net-(D38-A)*%
X146200000Y-80300000D03*
X146200000Y-76993152D03*
%TO.N,Net-(D37-A)*%
X142950000Y-76936306D03*
%TO.N,Net-(D36-A)*%
X139888152Y-76993153D03*
%TO.N,Net-(D35-A)*%
X136700000Y-77050000D03*
%TO.N,Net-(D27-A)*%
X133506847Y-76885000D03*
%TO.N,Net-(D19-A)*%
X130351194Y-76983153D03*
%TO.N,Net-(D11-A)*%
X127256847Y-76923153D03*
%TO.N,Net-(D10-A)*%
X124126194Y-76743153D03*
%TO.N,+3.3V*%
X162450000Y-91800000D03*
X162950000Y-88300000D03*
X180450000Y-95000000D03*
X180450000Y-93600000D03*
%TO.N,Net-(J3-Pin_2)*%
X180950000Y-87050000D03*
%TO.N,Net-(J3-Pin_3)*%
X179950000Y-87050000D03*
X179910000Y-83550000D03*
%TO.N,Net-(J3-Pin_2)*%
X180950000Y-83550000D03*
%TO.N,GND*%
X173450000Y-91650000D03*
X165450000Y-91800000D03*
X165450000Y-87800000D03*
X169950000Y-83800000D03*
%TD*%
D30*
%TO.N,Net-(J6-Pin_1)*%
X119200000Y-102060000D02*
X119540000Y-102400000D01*
X119200000Y-98913153D02*
X119200000Y-102060000D01*
%TO.N,Net-(J6-Pin_2)*%
X121540000Y-97490000D02*
X121540000Y-98000000D01*
X120423153Y-96373153D02*
X121540000Y-97490000D01*
X119200000Y-96373153D02*
X120423153Y-96373153D01*
%TO.N,Net-(D17-K)*%
X122560000Y-98000000D02*
X122560000Y-99101194D01*
X122560000Y-99101194D02*
X123012500Y-99553694D01*
%TO.N,Net-(D16-K)*%
X122650000Y-95244347D02*
X123012500Y-95606847D01*
X122650000Y-93890000D02*
X122650000Y-95244347D01*
X122560000Y-93800000D02*
X122650000Y-93890000D01*
%TO.N,Net-(D15-K)*%
X122560000Y-90400000D02*
X122560000Y-91479347D01*
X122560000Y-91479347D02*
X123012500Y-91931847D01*
%TO.N,Net-(J6-Pin_6)*%
X121540000Y-85310000D02*
X121540000Y-83000000D01*
X120636847Y-86213153D02*
X121540000Y-85310000D01*
X119200000Y-86213153D02*
X120636847Y-86213153D01*
%TO.N,Net-(J6-Pin_4)*%
X120646847Y-91293153D02*
X121540000Y-90400000D01*
X119200000Y-91293153D02*
X120646847Y-91293153D01*
%TO.N,Net-(D14-K)*%
X122560000Y-86800000D02*
X122560000Y-87904347D01*
X122560000Y-87904347D02*
X123012500Y-88356847D01*
%TO.N,Net-(J6-Pin_5)*%
X121540000Y-87910000D02*
X121540000Y-86800000D01*
X119200000Y-88753153D02*
X120696847Y-88753153D01*
X120696847Y-88753153D02*
X121540000Y-87910000D01*
%TO.N,Net-(D13-K)*%
X122560000Y-83000000D02*
X122560000Y-84104347D01*
X122560000Y-84104347D02*
X123012500Y-84556847D01*
%TO.N,Net-(D12-K)*%
X122560000Y-80729347D02*
X123012500Y-81181847D01*
X122560000Y-79600000D02*
X122560000Y-80729347D01*
%TO.N,Net-(D13-K)*%
X123012500Y-84556847D02*
X145086306Y-84556847D01*
%TO.N,Net-(D14-K)*%
X123069347Y-88413694D02*
X123012500Y-88356847D01*
X145086306Y-88413694D02*
X123069347Y-88413694D01*
%TO.N,Net-(D15-K)*%
X123187500Y-92106847D02*
X145143153Y-92106847D01*
X123012500Y-91931847D02*
X123187500Y-92106847D01*
%TO.N,Net-(D16-K)*%
X123012500Y-95606847D02*
X145143153Y-95606847D01*
%TO.N,Net-(D17-K)*%
X122863694Y-99600000D02*
X122856847Y-99606847D01*
X145136306Y-99600000D02*
X122863694Y-99600000D01*
X145143153Y-99606847D02*
X145136306Y-99600000D01*
%TO.N,Net-(D11-K)*%
X122955653Y-77800000D02*
X123012500Y-77856847D01*
X120570000Y-77800000D02*
X122955653Y-77800000D01*
%TO.N,Net-(D10-K)*%
X122123806Y-102400000D02*
X123012500Y-103288694D01*
X120370000Y-102400000D02*
X122123806Y-102400000D01*
%TO.N,Net-(J6-Pin_3)*%
X121616847Y-93833153D02*
X121650000Y-93800000D01*
X119200000Y-93833153D02*
X121616847Y-93833153D01*
%TO.N,Net-(J6-Pin_7)*%
X121530000Y-81320000D02*
X121530000Y-80000000D01*
X121450000Y-81400000D02*
X121530000Y-81320000D01*
X121450000Y-81423153D02*
X121450000Y-81400000D01*
X119200000Y-83673153D02*
X121450000Y-81423153D01*
%TO.N,Net-(J6-Pin_8)*%
X119200000Y-81133153D02*
X119200000Y-78530000D01*
X119200000Y-78530000D02*
X119930000Y-77800000D01*
%TO.N,Net-(D37-A)*%
X144056847Y-98493153D02*
X146000000Y-96550000D01*
X143006847Y-98493153D02*
X144056847Y-98493153D01*
X146000000Y-96550000D02*
X149710653Y-96550000D01*
%TO.N,Net-(D38-A)*%
X146853694Y-99090000D02*
X146256847Y-98493153D01*
X149710653Y-99090000D02*
X146853694Y-99090000D01*
%TO.N,Net-(D36-A)*%
X148900653Y-93200000D02*
X149710653Y-94010000D01*
X141050000Y-93200000D02*
X148900653Y-93200000D01*
X139756847Y-94493153D02*
X141050000Y-93200000D01*
%TO.N,Net-(D35-A)*%
X137450000Y-90050000D02*
X136506847Y-90993153D01*
X148240653Y-90000000D02*
X137450000Y-90000000D01*
X137450000Y-90000000D02*
X137450000Y-90050000D01*
X149710653Y-91470000D02*
X148240653Y-90000000D01*
%TO.N,Net-(D27-A)*%
X134736847Y-86000000D02*
X133506847Y-87230000D01*
X146780653Y-86000000D02*
X134736847Y-86000000D01*
X149710653Y-88930000D02*
X146780653Y-86000000D01*
%TO.N,Net-(D19-A)*%
X148450000Y-83400000D02*
X147441089Y-82391089D01*
X147441089Y-82391089D02*
X131513258Y-82391089D01*
X131513258Y-82391089D02*
X130351194Y-83553153D01*
X148450000Y-85129347D02*
X148450000Y-83400000D01*
X149710653Y-86390000D02*
X148450000Y-85129347D01*
%TO.N,Net-(D11-A)*%
X128345758Y-79159242D02*
X127256847Y-80248153D01*
X151250000Y-79800000D02*
X150609242Y-79159242D01*
X150650000Y-83800000D02*
X151250000Y-83200000D01*
X150609242Y-79159242D02*
X128345758Y-79159242D01*
X149760653Y-83800000D02*
X150650000Y-83800000D01*
X149710653Y-83850000D02*
X149760653Y-83800000D01*
X151250000Y-83200000D02*
X151250000Y-79800000D01*
%TO.N,Net-(D10-K)*%
X145125000Y-103288694D02*
X145200000Y-103213694D01*
X123012500Y-103288694D02*
X145125000Y-103288694D01*
%TO.N,Net-(J6-Pin_5)*%
X119539459Y-88413694D02*
X119200000Y-88753153D01*
%TO.N,Net-(D12-K)*%
X123244347Y-81413694D02*
X123012500Y-81181847D01*
X145086306Y-81413694D02*
X123244347Y-81413694D01*
%TO.N,Net-(J6-Pin_8)*%
X119736194Y-81133153D02*
X119200000Y-81133153D01*
%TO.N,Net-(D11-K)*%
X123262499Y-78106846D02*
X123012500Y-77856847D01*
X145086306Y-78106846D02*
X123262499Y-78106846D01*
X129237500Y-78096847D02*
X129746847Y-78096847D01*
X125963153Y-77856847D02*
X126143153Y-78036847D01*
%TO.N,+3.3V*%
X174967698Y-79800000D02*
X174450000Y-79800000D01*
X175450000Y-80282302D02*
X174967698Y-79800000D01*
X175450000Y-83300000D02*
X175450000Y-80282302D01*
X174450000Y-84300000D02*
X175450000Y-83300000D01*
X170841642Y-84300000D02*
X174450000Y-84300000D01*
X170312500Y-86300000D02*
X170312500Y-84829142D01*
X170312500Y-84829142D02*
X170841642Y-84300000D01*
%TO.N,Net-(D1-K)*%
X174275000Y-80875000D02*
X174200000Y-80800000D01*
X174275000Y-82800000D02*
X174275000Y-80875000D01*
%TO.N,GND*%
X171825000Y-82800000D02*
X172625000Y-82800000D01*
D31*
%TO.N,+3.3V*%
X172625000Y-79975000D02*
X172450000Y-79800000D01*
X172625000Y-80800000D02*
X172625000Y-79975000D01*
X172625000Y-81125000D02*
X172625000Y-80800000D01*
X170950000Y-82800000D02*
X172625000Y-81125000D01*
X166420000Y-82800000D02*
X166100000Y-82480000D01*
X170950000Y-82800000D02*
X166420000Y-82800000D01*
D30*
X180250000Y-93400000D02*
X180450000Y-93600000D01*
X175887500Y-93400000D02*
X180250000Y-93400000D01*
%TO.N,Net-(J3-Pin_2)*%
X180950000Y-87050000D02*
X180950000Y-86950000D01*
%TO.N,Net-(J3-Pin_3)*%
X179950000Y-87050000D02*
X179950000Y-88800000D01*
X179910000Y-83550000D02*
X179910000Y-77300000D01*
%TO.N,Net-(J3-Pin_2)*%
X180950000Y-83550000D02*
X180950000Y-80300000D01*
D31*
%TO.N,GND*%
X168950000Y-102100000D02*
X171070000Y-99980000D01*
D30*
X169630000Y-84120000D02*
X169950000Y-83800000D01*
X166550000Y-92175000D02*
X166175000Y-91800000D01*
X165950000Y-87800000D02*
X166450000Y-87300000D01*
X170825000Y-83800000D02*
X171825000Y-82800000D01*
X166175000Y-91800000D02*
X166675000Y-91300000D01*
X167800000Y-84120000D02*
X169630000Y-84120000D01*
D31*
X166830000Y-99980000D02*
X168950000Y-102100000D01*
X171070000Y-99980000D02*
X173950000Y-99980000D01*
D30*
X165450000Y-87800000D02*
X165950000Y-87800000D01*
X169950000Y-83800000D02*
X170825000Y-83800000D01*
X165450000Y-91800000D02*
X166175000Y-91800000D01*
D31*
X163450000Y-99980000D02*
X166830000Y-99980000D01*
D30*
X166550000Y-92800000D02*
X166550000Y-92175000D01*
X166550000Y-88800000D02*
X166550000Y-88400000D01*
X166550000Y-88400000D02*
X165950000Y-87800000D01*
D31*
%TO.N,Net-(BT1-+)*%
X168700000Y-78560000D02*
X168700000Y-80550000D01*
X168700000Y-80550000D02*
X169450000Y-81300000D01*
D30*
%TO.N,+3.3V*%
X164275000Y-93625000D02*
X162450000Y-91800000D01*
X181140000Y-95640000D02*
X181610000Y-95640000D01*
X182950000Y-95640000D02*
X183370000Y-95220000D01*
D31*
X172450000Y-79800000D02*
X171440000Y-79800000D01*
D30*
X183370000Y-95220000D02*
X187307057Y-95220000D01*
X164950000Y-86300000D02*
X170312500Y-86300000D01*
X188150000Y-94377057D02*
X188150000Y-80460000D01*
X169050000Y-92800000D02*
X169950000Y-91900000D01*
X169950000Y-91900000D02*
X171012500Y-91900000D01*
X162950000Y-88300000D02*
X164950000Y-86300000D01*
D31*
X184990000Y-77300000D02*
X183690000Y-76000000D01*
D30*
X180450000Y-94950000D02*
X181140000Y-95640000D01*
X169450000Y-88800000D02*
X170550000Y-89900000D01*
X170550000Y-89900000D02*
X171012500Y-89900000D01*
X168100000Y-92800000D02*
X167275000Y-93625000D01*
D31*
X171440000Y-79800000D02*
X170200000Y-78560000D01*
D30*
X188150000Y-80460000D02*
X184990000Y-77300000D01*
D31*
X175550000Y-77060000D02*
X175550000Y-78700000D01*
D30*
X181610000Y-95640000D02*
X182950000Y-95640000D01*
D31*
X170200000Y-78560000D02*
X170200000Y-79050000D01*
X176610000Y-76000000D02*
X175550000Y-77060000D01*
X174450000Y-79800000D02*
X171950000Y-79800000D01*
X183690000Y-76000000D02*
X176610000Y-76000000D01*
D30*
X167275000Y-93625000D02*
X164275000Y-93625000D01*
X170312500Y-87937500D02*
X170312500Y-86300000D01*
D31*
X175550000Y-78700000D02*
X174450000Y-79800000D01*
D30*
X169450000Y-88800000D02*
X170312500Y-87937500D01*
X168100000Y-88800000D02*
X169450000Y-88800000D01*
X187307057Y-95220000D02*
X188150000Y-94377057D01*
X168100000Y-92800000D02*
X169050000Y-92800000D01*
%TO.N,Net-(U1-NRST)*%
X168225000Y-91300000D02*
X168325000Y-91400000D01*
X168325000Y-91400000D02*
X171012500Y-91400000D01*
%TO.N,Net-(D2-A)*%
X171100000Y-88612500D02*
X171700000Y-89212500D01*
X171100000Y-87300000D02*
X171100000Y-88612500D01*
%TO.N,Net-(D2-K)*%
X169525000Y-87300000D02*
X168100000Y-87300000D01*
%TO.N,Net-(J1-Pin_4)*%
X162950000Y-95800000D02*
X169987500Y-95800000D01*
X156450000Y-88880000D02*
X156450000Y-89300000D01*
X169987500Y-95800000D02*
X171700000Y-94087500D01*
X156450000Y-89300000D02*
X162950000Y-95800000D01*
%TO.N,Net-(J1-Pin_2)*%
X170364214Y-92900000D02*
X168464214Y-94800000D01*
X159450000Y-90800000D02*
X159450000Y-85800000D01*
X157450000Y-83800000D02*
X156450000Y-83800000D01*
X168464214Y-94800000D02*
X163450000Y-94800000D01*
X159450000Y-85800000D02*
X157450000Y-83800000D01*
X163450000Y-94800000D02*
X159450000Y-90800000D01*
X171012500Y-92900000D02*
X170364214Y-92900000D01*
%TO.N,Net-(J1-Pin_5)*%
X156450000Y-91420000D02*
X156450000Y-91800000D01*
X170510096Y-96300000D02*
X172200000Y-94610096D01*
X172200000Y-94610096D02*
X172200000Y-94087500D01*
X160950000Y-96300000D02*
X170510096Y-96300000D01*
X156450000Y-91800000D02*
X160950000Y-96300000D01*
%TO.N,Net-(J1-Pin_1)*%
X171012500Y-92400000D02*
X170157106Y-92400000D01*
X170157106Y-92400000D02*
X168257106Y-94300000D01*
X160450000Y-91092894D02*
X160450000Y-84800000D01*
X160450000Y-84800000D02*
X156910000Y-81260000D01*
X163657106Y-94300000D02*
X160450000Y-91092894D01*
X156910000Y-81260000D02*
X156450000Y-81260000D01*
X168257106Y-94300000D02*
X163657106Y-94300000D01*
%TO.N,Net-(J1-Pin_3)*%
X171012500Y-93400000D02*
X169112500Y-95300000D01*
X158450000Y-88300000D02*
X156490000Y-86340000D01*
X169112500Y-95300000D02*
X163157106Y-95300000D01*
X156490000Y-86340000D02*
X156450000Y-86340000D01*
X158450000Y-90592894D02*
X158450000Y-88300000D01*
X163157106Y-95300000D02*
X158450000Y-90592894D01*
%TO.N,Net-(J1-Pin_8)*%
X173700000Y-95257106D02*
X173700000Y-94087500D01*
X157300000Y-98190000D02*
X170767106Y-98190000D01*
X156450000Y-99040000D02*
X157300000Y-98190000D01*
X170767106Y-98190000D02*
X173700000Y-95257106D01*
%TO.N,Net-(J1-Pin_6)*%
X170717203Y-96800000D02*
X172700000Y-94817203D01*
X156450000Y-93960000D02*
X156450000Y-94300000D01*
X156450000Y-94300000D02*
X158950000Y-96800000D01*
X158950000Y-96800000D02*
X170717203Y-96800000D01*
X172700000Y-94817203D02*
X172700000Y-94087500D01*
%TO.N,Net-(J1-Pin_7)*%
X173200000Y-95050000D02*
X173200000Y-94087500D01*
X156450000Y-96500000D02*
X157300000Y-97350000D01*
X170900000Y-97350000D02*
X173200000Y-95050000D01*
X157300000Y-97350000D02*
X170900000Y-97350000D01*
%TO.N,Net-(J2-Pin_5)*%
X175950000Y-85800000D02*
X174200000Y-87550000D01*
X174200000Y-87550000D02*
X174200000Y-89212500D01*
X183950000Y-85800000D02*
X175950000Y-85800000D01*
X186950000Y-88800000D02*
X183950000Y-85800000D01*
%TO.N,Net-(J2-Pin_3)*%
X186530000Y-94300000D02*
X175412500Y-94300000D01*
X186950000Y-93880000D02*
X186530000Y-94300000D01*
X175412500Y-94300000D02*
X175200000Y-94087500D01*
%TO.N,Net-(J2-Pin_6)*%
X186950000Y-86260000D02*
X185990000Y-85300000D01*
X173700000Y-87342894D02*
X173700000Y-89212500D01*
X175742894Y-85300000D02*
X173700000Y-87342894D01*
X185990000Y-85300000D02*
X175742894Y-85300000D01*
%TO.N,Net-(J2-Pin_7)*%
X175535788Y-84800000D02*
X185870000Y-84800000D01*
X185870000Y-84800000D02*
X186950000Y-83720000D01*
X173200000Y-87135788D02*
X175535788Y-84800000D01*
X173200000Y-89212500D02*
X173200000Y-87135788D01*
%TO.N,Net-(J2-Pin_4)*%
X183450000Y-86300000D02*
X176157106Y-86300000D01*
X176157106Y-86300000D02*
X174700000Y-87757106D01*
X186950000Y-91340000D02*
X185750000Y-90140000D01*
X185750000Y-88600000D02*
X183450000Y-86300000D01*
X185750000Y-90140000D02*
X185750000Y-88600000D01*
X174700000Y-87757106D02*
X174700000Y-89212500D01*
%TO.N,Net-(J2-Pin_1)*%
X186950000Y-98960000D02*
X178260000Y-98960000D01*
X178260000Y-98960000D02*
X174200000Y-94900000D01*
X174200000Y-94900000D02*
X174200000Y-94087500D01*
%TO.N,Net-(J2-Pin_8)*%
X175328681Y-84300000D02*
X183830000Y-84300000D01*
X172700000Y-86928681D02*
X175328681Y-84300000D01*
X183830000Y-84300000D02*
X186950000Y-81180000D01*
X172700000Y-89212500D02*
X172700000Y-86928681D01*
%TO.N,Net-(J2-Pin_2)*%
X174700000Y-94610096D02*
X174700000Y-94087500D01*
X186950000Y-96420000D02*
X186100000Y-97270000D01*
X177359904Y-97270000D02*
X174700000Y-94610096D01*
X186100000Y-97270000D02*
X177359904Y-97270000D01*
%TO.N,Net-(J3-Pin_3)*%
X178850000Y-89900000D02*
X175887500Y-89900000D01*
X179950000Y-83650000D02*
X179910000Y-83610000D01*
X179950000Y-86950000D02*
X179950000Y-87050000D01*
X179950000Y-88800000D02*
X178850000Y-89900000D01*
X179910000Y-83610000D02*
X179910000Y-83550000D01*
%TO.N,Net-(J3-Pin_2)*%
X180950000Y-80300000D02*
X182450000Y-78800000D01*
X175887500Y-90400000D02*
X179350000Y-90400000D01*
X180950000Y-88800000D02*
X180950000Y-87050000D01*
X179450000Y-90300000D02*
X180950000Y-88800000D01*
X179350000Y-90400000D02*
X179450000Y-90300000D01*
X180950000Y-83650000D02*
X180950000Y-83550000D01*
X182450000Y-78800000D02*
X182450000Y-77300000D01*
%TO.N,Net-(J4-Pin_3)*%
X182950000Y-90560000D02*
X181610000Y-91900000D01*
X181610000Y-91900000D02*
X175887500Y-91900000D01*
%TO.N,Net-(J4-Pin_2)*%
X182950000Y-93100000D02*
X182250000Y-92400000D01*
X182250000Y-92400000D02*
X175887500Y-92400000D01*
%TO.N,Net-(SW1-B)*%
X164400000Y-84750000D02*
X165450000Y-85800000D01*
X165450000Y-85800000D02*
X168950000Y-85800000D01*
X168950000Y-85800000D02*
X169450000Y-85300000D01*
X164400000Y-84120000D02*
X164400000Y-84750000D01*
%TO.N,Net-(U1-BOOT0)*%
X172200000Y-86400000D02*
X172200000Y-89212500D01*
X171100000Y-85300000D02*
X172200000Y-86400000D01*
%TO.N,Net-(SW3-B)*%
X170420000Y-103450000D02*
X158455836Y-103450000D01*
X161950000Y-88300000D02*
X163275000Y-89625000D01*
X155802893Y-78800000D02*
X157157106Y-78800000D01*
X163275000Y-89625000D02*
X169567893Y-89625000D01*
X154750000Y-99744164D02*
X154750000Y-79852893D01*
X158455836Y-103450000D02*
X154750000Y-99744164D01*
X170342893Y-90400000D02*
X171012500Y-90400000D01*
X172250000Y-101620000D02*
X170420000Y-103450000D01*
X157157106Y-78800000D02*
X161950000Y-83592894D01*
X169567893Y-89625000D02*
X170342893Y-90400000D01*
X161950000Y-83592894D02*
X161950000Y-88300000D01*
X154750000Y-79852893D02*
X155802893Y-78800000D01*
%TO.N,Net-(SW4-B)*%
X155250000Y-99537057D02*
X155250000Y-80059999D01*
X155509999Y-79800000D02*
X157450000Y-79800000D01*
X161750000Y-101620000D02*
X157332943Y-101620000D01*
X157450000Y-79800000D02*
X160950000Y-83300000D01*
X160950000Y-88800000D02*
X162625000Y-90475000D01*
X160950000Y-83300000D02*
X160950000Y-88800000D01*
X155250000Y-80059999D02*
X155509999Y-79800000D01*
X169119408Y-90900000D02*
X171012500Y-90900000D01*
X157332943Y-101620000D02*
X155250000Y-99537057D01*
X168694408Y-90475000D02*
X169119408Y-90900000D01*
X162625000Y-90475000D02*
X168694408Y-90475000D01*
%TD*%
M02*
