%TF.GenerationSoftware,KiCad,Pcbnew,8.0.7*%
%TF.CreationDate,2025-04-21T23:50:56-03:00*%
%TF.ProjectId,matrixdisplay,6d617472-6978-4646-9973-706c61792e6b,rev?*%
%TF.SameCoordinates,Original*%
%TF.FileFunction,Legend,Bot*%
%TF.FilePolarity,Positive*%
%FSLAX46Y46*%
G04 Gerber Fmt 4.6, Leading zero omitted, Abs format (unit mm)*
G04 Created by KiCad (PCBNEW 8.0.7) date 2025-04-21 23:50:56*
%MOMM*%
%LPD*%
G01*
G04 APERTURE LIST*
%ADD10C,0.200000*%
%ADD11C,0.000000*%
%ADD12C,0.120000*%
G04 APERTURE END LIST*
D10*
X167327945Y-76181504D02*
X166851755Y-76181504D01*
X167423183Y-76467219D02*
X167089850Y-75467219D01*
X167089850Y-75467219D02*
X166756517Y-76467219D01*
X166423183Y-76467219D02*
X166423183Y-75800552D01*
X166423183Y-75991028D02*
X166375564Y-75895790D01*
X166375564Y-75895790D02*
X166327945Y-75848171D01*
X166327945Y-75848171D02*
X166232707Y-75800552D01*
X166232707Y-75800552D02*
X166137469Y-75800552D01*
X165375564Y-76419600D02*
X165470802Y-76467219D01*
X165470802Y-76467219D02*
X165661278Y-76467219D01*
X165661278Y-76467219D02*
X165756516Y-76419600D01*
X165756516Y-76419600D02*
X165804135Y-76371980D01*
X165804135Y-76371980D02*
X165851754Y-76276742D01*
X165851754Y-76276742D02*
X165851754Y-75991028D01*
X165851754Y-75991028D02*
X165804135Y-75895790D01*
X165804135Y-75895790D02*
X165756516Y-75848171D01*
X165756516Y-75848171D02*
X165661278Y-75800552D01*
X165661278Y-75800552D02*
X165470802Y-75800552D01*
X165470802Y-75800552D02*
X165375564Y-75848171D01*
X164946992Y-76467219D02*
X164946992Y-75467219D01*
X164946992Y-75467219D02*
X164613659Y-76181504D01*
X164613659Y-76181504D02*
X164280326Y-75467219D01*
X164280326Y-75467219D02*
X164280326Y-76467219D01*
X163375564Y-76467219D02*
X163375564Y-75943409D01*
X163375564Y-75943409D02*
X163423183Y-75848171D01*
X163423183Y-75848171D02*
X163518421Y-75800552D01*
X163518421Y-75800552D02*
X163708897Y-75800552D01*
X163708897Y-75800552D02*
X163804135Y-75848171D01*
X163375564Y-76419600D02*
X163470802Y-76467219D01*
X163470802Y-76467219D02*
X163708897Y-76467219D01*
X163708897Y-76467219D02*
X163804135Y-76419600D01*
X163804135Y-76419600D02*
X163851754Y-76324361D01*
X163851754Y-76324361D02*
X163851754Y-76229123D01*
X163851754Y-76229123D02*
X163804135Y-76133885D01*
X163804135Y-76133885D02*
X163708897Y-76086266D01*
X163708897Y-76086266D02*
X163470802Y-76086266D01*
X163470802Y-76086266D02*
X163375564Y-76038647D01*
X162899373Y-76467219D02*
X162899373Y-75467219D01*
X162804135Y-76086266D02*
X162518421Y-76467219D01*
X162518421Y-75800552D02*
X162899373Y-76181504D01*
X161708897Y-76419600D02*
X161804135Y-76467219D01*
X161804135Y-76467219D02*
X161994611Y-76467219D01*
X161994611Y-76467219D02*
X162089849Y-76419600D01*
X162089849Y-76419600D02*
X162137468Y-76324361D01*
X162137468Y-76324361D02*
X162137468Y-75943409D01*
X162137468Y-75943409D02*
X162089849Y-75848171D01*
X162089849Y-75848171D02*
X161994611Y-75800552D01*
X161994611Y-75800552D02*
X161804135Y-75800552D01*
X161804135Y-75800552D02*
X161708897Y-75848171D01*
X161708897Y-75848171D02*
X161661278Y-75943409D01*
X161661278Y-75943409D02*
X161661278Y-76038647D01*
X161661278Y-76038647D02*
X162137468Y-76133885D01*
X161232706Y-76467219D02*
X161232706Y-75800552D01*
X161232706Y-75991028D02*
X161185087Y-75895790D01*
X161185087Y-75895790D02*
X161137468Y-75848171D01*
X161137468Y-75848171D02*
X161042230Y-75800552D01*
X161042230Y-75800552D02*
X160946992Y-75800552D01*
X159946991Y-75800552D02*
X159708896Y-76467219D01*
X159708896Y-76467219D02*
X159470801Y-75800552D01*
X158899372Y-75467219D02*
X158804134Y-75467219D01*
X158804134Y-75467219D02*
X158708896Y-75514838D01*
X158708896Y-75514838D02*
X158661277Y-75562457D01*
X158661277Y-75562457D02*
X158613658Y-75657695D01*
X158613658Y-75657695D02*
X158566039Y-75848171D01*
X158566039Y-75848171D02*
X158566039Y-76086266D01*
X158566039Y-76086266D02*
X158613658Y-76276742D01*
X158613658Y-76276742D02*
X158661277Y-76371980D01*
X158661277Y-76371980D02*
X158708896Y-76419600D01*
X158708896Y-76419600D02*
X158804134Y-76467219D01*
X158804134Y-76467219D02*
X158899372Y-76467219D01*
X158899372Y-76467219D02*
X158994610Y-76419600D01*
X158994610Y-76419600D02*
X159042229Y-76371980D01*
X159042229Y-76371980D02*
X159089848Y-76276742D01*
X159089848Y-76276742D02*
X159137467Y-76086266D01*
X159137467Y-76086266D02*
X159137467Y-75848171D01*
X159137467Y-75848171D02*
X159089848Y-75657695D01*
X159089848Y-75657695D02*
X159042229Y-75562457D01*
X159042229Y-75562457D02*
X158994610Y-75514838D01*
X158994610Y-75514838D02*
X158899372Y-75467219D01*
X158137467Y-76371980D02*
X158089848Y-76419600D01*
X158089848Y-76419600D02*
X158137467Y-76467219D01*
X158137467Y-76467219D02*
X158185086Y-76419600D01*
X158185086Y-76419600D02*
X158137467Y-76371980D01*
X158137467Y-76371980D02*
X158137467Y-76467219D01*
X157137468Y-76467219D02*
X157708896Y-76467219D01*
X157423182Y-76467219D02*
X157423182Y-75467219D01*
X157423182Y-75467219D02*
X157518420Y-75610076D01*
X157518420Y-75610076D02*
X157613658Y-75705314D01*
X157613658Y-75705314D02*
X157708896Y-75752933D01*
X139527945Y-103781504D02*
X139051755Y-103781504D01*
X139623183Y-104067219D02*
X139289850Y-103067219D01*
X139289850Y-103067219D02*
X138956517Y-104067219D01*
X138623183Y-104067219D02*
X138623183Y-103400552D01*
X138623183Y-103591028D02*
X138575564Y-103495790D01*
X138575564Y-103495790D02*
X138527945Y-103448171D01*
X138527945Y-103448171D02*
X138432707Y-103400552D01*
X138432707Y-103400552D02*
X138337469Y-103400552D01*
X137575564Y-104019600D02*
X137670802Y-104067219D01*
X137670802Y-104067219D02*
X137861278Y-104067219D01*
X137861278Y-104067219D02*
X137956516Y-104019600D01*
X137956516Y-104019600D02*
X138004135Y-103971980D01*
X138004135Y-103971980D02*
X138051754Y-103876742D01*
X138051754Y-103876742D02*
X138051754Y-103591028D01*
X138051754Y-103591028D02*
X138004135Y-103495790D01*
X138004135Y-103495790D02*
X137956516Y-103448171D01*
X137956516Y-103448171D02*
X137861278Y-103400552D01*
X137861278Y-103400552D02*
X137670802Y-103400552D01*
X137670802Y-103400552D02*
X137575564Y-103448171D01*
X137146992Y-104067219D02*
X137146992Y-103067219D01*
X137146992Y-103067219D02*
X136813659Y-103781504D01*
X136813659Y-103781504D02*
X136480326Y-103067219D01*
X136480326Y-103067219D02*
X136480326Y-104067219D01*
X135575564Y-104067219D02*
X135575564Y-103543409D01*
X135575564Y-103543409D02*
X135623183Y-103448171D01*
X135623183Y-103448171D02*
X135718421Y-103400552D01*
X135718421Y-103400552D02*
X135908897Y-103400552D01*
X135908897Y-103400552D02*
X136004135Y-103448171D01*
X135575564Y-104019600D02*
X135670802Y-104067219D01*
X135670802Y-104067219D02*
X135908897Y-104067219D01*
X135908897Y-104067219D02*
X136004135Y-104019600D01*
X136004135Y-104019600D02*
X136051754Y-103924361D01*
X136051754Y-103924361D02*
X136051754Y-103829123D01*
X136051754Y-103829123D02*
X136004135Y-103733885D01*
X136004135Y-103733885D02*
X135908897Y-103686266D01*
X135908897Y-103686266D02*
X135670802Y-103686266D01*
X135670802Y-103686266D02*
X135575564Y-103638647D01*
X135099373Y-104067219D02*
X135099373Y-103067219D01*
X135004135Y-103686266D02*
X134718421Y-104067219D01*
X134718421Y-103400552D02*
X135099373Y-103781504D01*
X133908897Y-104019600D02*
X134004135Y-104067219D01*
X134004135Y-104067219D02*
X134194611Y-104067219D01*
X134194611Y-104067219D02*
X134289849Y-104019600D01*
X134289849Y-104019600D02*
X134337468Y-103924361D01*
X134337468Y-103924361D02*
X134337468Y-103543409D01*
X134337468Y-103543409D02*
X134289849Y-103448171D01*
X134289849Y-103448171D02*
X134194611Y-103400552D01*
X134194611Y-103400552D02*
X134004135Y-103400552D01*
X134004135Y-103400552D02*
X133908897Y-103448171D01*
X133908897Y-103448171D02*
X133861278Y-103543409D01*
X133861278Y-103543409D02*
X133861278Y-103638647D01*
X133861278Y-103638647D02*
X134337468Y-103733885D01*
X133432706Y-104067219D02*
X133432706Y-103400552D01*
X133432706Y-103591028D02*
X133385087Y-103495790D01*
X133385087Y-103495790D02*
X133337468Y-103448171D01*
X133337468Y-103448171D02*
X133242230Y-103400552D01*
X133242230Y-103400552D02*
X133146992Y-103400552D01*
X132146991Y-103400552D02*
X131908896Y-104067219D01*
X131908896Y-104067219D02*
X131670801Y-103400552D01*
X131099372Y-103067219D02*
X131004134Y-103067219D01*
X131004134Y-103067219D02*
X130908896Y-103114838D01*
X130908896Y-103114838D02*
X130861277Y-103162457D01*
X130861277Y-103162457D02*
X130813658Y-103257695D01*
X130813658Y-103257695D02*
X130766039Y-103448171D01*
X130766039Y-103448171D02*
X130766039Y-103686266D01*
X130766039Y-103686266D02*
X130813658Y-103876742D01*
X130813658Y-103876742D02*
X130861277Y-103971980D01*
X130861277Y-103971980D02*
X130908896Y-104019600D01*
X130908896Y-104019600D02*
X131004134Y-104067219D01*
X131004134Y-104067219D02*
X131099372Y-104067219D01*
X131099372Y-104067219D02*
X131194610Y-104019600D01*
X131194610Y-104019600D02*
X131242229Y-103971980D01*
X131242229Y-103971980D02*
X131289848Y-103876742D01*
X131289848Y-103876742D02*
X131337467Y-103686266D01*
X131337467Y-103686266D02*
X131337467Y-103448171D01*
X131337467Y-103448171D02*
X131289848Y-103257695D01*
X131289848Y-103257695D02*
X131242229Y-103162457D01*
X131242229Y-103162457D02*
X131194610Y-103114838D01*
X131194610Y-103114838D02*
X131099372Y-103067219D01*
X130337467Y-103971980D02*
X130289848Y-104019600D01*
X130289848Y-104019600D02*
X130337467Y-104067219D01*
X130337467Y-104067219D02*
X130385086Y-104019600D01*
X130385086Y-104019600D02*
X130337467Y-103971980D01*
X130337467Y-103971980D02*
X130337467Y-104067219D01*
X129337468Y-104067219D02*
X129908896Y-104067219D01*
X129623182Y-104067219D02*
X129623182Y-103067219D01*
X129623182Y-103067219D02*
X129718420Y-103210076D01*
X129718420Y-103210076D02*
X129813658Y-103305314D01*
X129813658Y-103305314D02*
X129908896Y-103352933D01*
X119508898Y-101571980D02*
X119556517Y-101619600D01*
X119556517Y-101619600D02*
X119699374Y-101667219D01*
X119699374Y-101667219D02*
X119794612Y-101667219D01*
X119794612Y-101667219D02*
X119937469Y-101619600D01*
X119937469Y-101619600D02*
X120032707Y-101524361D01*
X120032707Y-101524361D02*
X120080326Y-101429123D01*
X120080326Y-101429123D02*
X120127945Y-101238647D01*
X120127945Y-101238647D02*
X120127945Y-101095790D01*
X120127945Y-101095790D02*
X120080326Y-100905314D01*
X120080326Y-100905314D02*
X120032707Y-100810076D01*
X120032707Y-100810076D02*
X119937469Y-100714838D01*
X119937469Y-100714838D02*
X119794612Y-100667219D01*
X119794612Y-100667219D02*
X119699374Y-100667219D01*
X119699374Y-100667219D02*
X119556517Y-100714838D01*
X119556517Y-100714838D02*
X119508898Y-100762457D01*
X118937469Y-101667219D02*
X119032707Y-101619600D01*
X119032707Y-101619600D02*
X119080326Y-101571980D01*
X119080326Y-101571980D02*
X119127945Y-101476742D01*
X119127945Y-101476742D02*
X119127945Y-101191028D01*
X119127945Y-101191028D02*
X119080326Y-101095790D01*
X119080326Y-101095790D02*
X119032707Y-101048171D01*
X119032707Y-101048171D02*
X118937469Y-101000552D01*
X118937469Y-101000552D02*
X118794612Y-101000552D01*
X118794612Y-101000552D02*
X118699374Y-101048171D01*
X118699374Y-101048171D02*
X118651755Y-101095790D01*
X118651755Y-101095790D02*
X118604136Y-101191028D01*
X118604136Y-101191028D02*
X118604136Y-101476742D01*
X118604136Y-101476742D02*
X118651755Y-101571980D01*
X118651755Y-101571980D02*
X118699374Y-101619600D01*
X118699374Y-101619600D02*
X118794612Y-101667219D01*
X118794612Y-101667219D02*
X118937469Y-101667219D01*
X118032707Y-101667219D02*
X118127945Y-101619600D01*
X118127945Y-101619600D02*
X118175564Y-101524361D01*
X118175564Y-101524361D02*
X118175564Y-100667219D01*
X149946993Y-101543409D02*
X150280326Y-101543409D01*
X150280326Y-102067219D02*
X150280326Y-101067219D01*
X150280326Y-101067219D02*
X149804136Y-101067219D01*
X149423183Y-102067219D02*
X149423183Y-101400552D01*
X149423183Y-101067219D02*
X149470802Y-101114838D01*
X149470802Y-101114838D02*
X149423183Y-101162457D01*
X149423183Y-101162457D02*
X149375564Y-101114838D01*
X149375564Y-101114838D02*
X149423183Y-101067219D01*
X149423183Y-101067219D02*
X149423183Y-101162457D01*
X148804136Y-102067219D02*
X148899374Y-102019600D01*
X148899374Y-102019600D02*
X148946993Y-101924361D01*
X148946993Y-101924361D02*
X148946993Y-101067219D01*
D11*
%TO.C,G\u002A\u002A\u002A*%
G36*
X138147291Y-88463370D02*
G01*
X138234283Y-88733806D01*
X138295743Y-89011795D01*
X138332218Y-89299729D01*
X138344254Y-89600000D01*
X138343844Y-89657053D01*
X138327705Y-89951633D01*
X138287548Y-90234128D01*
X138222650Y-90507717D01*
X138132285Y-90775574D01*
X138015730Y-91040876D01*
X138004482Y-91063604D01*
X137859655Y-91322769D01*
X137693012Y-91565772D01*
X137506145Y-91791485D01*
X137300649Y-91998779D01*
X137078118Y-92186526D01*
X136840146Y-92353599D01*
X136588328Y-92498868D01*
X136324258Y-92621205D01*
X136049530Y-92719483D01*
X135765737Y-92792573D01*
X135474475Y-92839347D01*
X135440258Y-92842253D01*
X135371760Y-92845739D01*
X135282782Y-92848588D01*
X135177729Y-92850796D01*
X135061005Y-92852357D01*
X134937014Y-92853266D01*
X134810158Y-92853516D01*
X134684843Y-92853103D01*
X134565471Y-92852021D01*
X134456447Y-92850264D01*
X134362174Y-92847828D01*
X134287056Y-92844706D01*
X134235497Y-92840893D01*
X134220485Y-92839227D01*
X133924501Y-92791892D01*
X133637158Y-92718458D01*
X133359871Y-92619918D01*
X133094057Y-92497263D01*
X132841131Y-92351485D01*
X132602510Y-92183574D01*
X132379608Y-91994523D01*
X132173842Y-91785324D01*
X131986629Y-91556967D01*
X131819383Y-91310445D01*
X131673521Y-91046749D01*
X131648958Y-90996142D01*
X131536652Y-90730892D01*
X131450411Y-90461428D01*
X131389599Y-90184976D01*
X131353578Y-89898758D01*
X131341713Y-89600000D01*
X131342005Y-89552167D01*
X131357825Y-89253981D01*
X131398167Y-88967759D01*
X131463581Y-88691108D01*
X131554612Y-88421637D01*
X131671809Y-88156954D01*
X131678672Y-88144053D01*
X132301822Y-88144053D01*
X132302340Y-88156179D01*
X132305520Y-88194163D01*
X132311209Y-88255840D01*
X132319179Y-88339008D01*
X132329203Y-88441465D01*
X132341055Y-88561011D01*
X132354507Y-88695444D01*
X132369334Y-88842561D01*
X132385307Y-89000162D01*
X132402200Y-89166045D01*
X132419786Y-89338009D01*
X132437839Y-89513852D01*
X132456131Y-89691372D01*
X132474435Y-89868368D01*
X132492526Y-90042639D01*
X132510174Y-90211983D01*
X132527155Y-90374198D01*
X132543241Y-90527083D01*
X132558204Y-90668437D01*
X132571819Y-90796058D01*
X132583859Y-90907744D01*
X132594095Y-91001294D01*
X132602302Y-91074506D01*
X132608253Y-91125179D01*
X132611721Y-91151112D01*
X132614305Y-91161108D01*
X132623728Y-91178679D01*
X132642046Y-91199841D01*
X132672090Y-91227081D01*
X132716689Y-91262886D01*
X132778670Y-91309743D01*
X132860863Y-91370139D01*
X132883075Y-91386321D01*
X132955315Y-91438748D01*
X133020331Y-91485633D01*
X133074267Y-91524213D01*
X133113270Y-91551729D01*
X133133485Y-91565420D01*
X133134612Y-91566099D01*
X133146834Y-91571089D01*
X133162122Y-91571006D01*
X133183938Y-91564224D01*
X133215743Y-91549118D01*
X133260998Y-91524063D01*
X133323164Y-91487435D01*
X133405701Y-91437609D01*
X133420206Y-91428810D01*
X133493013Y-91384781D01*
X133557036Y-91346276D01*
X133608479Y-91315564D01*
X133643544Y-91294913D01*
X133658435Y-91286592D01*
X133664308Y-91287667D01*
X133689322Y-91300618D01*
X133727396Y-91324349D01*
X133772527Y-91354665D01*
X133818713Y-91387372D01*
X133859953Y-91418277D01*
X133890246Y-91443186D01*
X133903588Y-91457904D01*
X133905061Y-91468217D01*
X133908101Y-91503805D01*
X133912069Y-91560494D01*
X133916705Y-91634263D01*
X133921746Y-91721088D01*
X133926931Y-91816950D01*
X133944862Y-92160474D01*
X134379890Y-92479381D01*
X134398410Y-92492949D01*
X134494627Y-92563151D01*
X134583508Y-92627533D01*
X134662513Y-92684289D01*
X134729101Y-92731611D01*
X134780731Y-92767689D01*
X134814861Y-92790717D01*
X134828951Y-92798886D01*
X134829089Y-92798880D01*
X134844025Y-92790634D01*
X134878641Y-92768276D01*
X134929899Y-92733936D01*
X134994762Y-92689742D01*
X135070191Y-92637823D01*
X135153149Y-92580309D01*
X135240599Y-92519328D01*
X135329503Y-92457011D01*
X135416824Y-92395484D01*
X135499523Y-92336878D01*
X135574563Y-92283322D01*
X135638907Y-92236945D01*
X135689516Y-92199875D01*
X135723354Y-92174243D01*
X135737382Y-92162176D01*
X135739801Y-92152198D01*
X135742980Y-92117343D01*
X135745550Y-92062911D01*
X135747292Y-91993941D01*
X135747991Y-91915470D01*
X135748161Y-91876234D01*
X135749327Y-91785991D01*
X135751399Y-91698890D01*
X135754153Y-91623237D01*
X135757365Y-91567342D01*
X135766440Y-91450760D01*
X135896111Y-91360353D01*
X135942518Y-91328683D01*
X135989440Y-91298243D01*
X136024100Y-91277567D01*
X136041220Y-91269945D01*
X136043190Y-91270421D01*
X136064616Y-91281064D01*
X136104967Y-91304012D01*
X136160466Y-91337026D01*
X136227337Y-91377871D01*
X136301805Y-91424310D01*
X136321206Y-91436497D01*
X136394047Y-91481720D01*
X136458289Y-91520784D01*
X136510166Y-91551455D01*
X136545914Y-91571497D01*
X136561769Y-91578674D01*
X136569493Y-91574966D01*
X136598197Y-91557129D01*
X136645089Y-91526234D01*
X136707380Y-91484172D01*
X136782278Y-91432833D01*
X136866993Y-91374105D01*
X136958734Y-91309879D01*
X137023134Y-91264584D01*
X137109310Y-91203978D01*
X137185983Y-91150061D01*
X137250464Y-91104726D01*
X137300060Y-91069864D01*
X137332083Y-91047366D01*
X137343840Y-91039124D01*
X137344197Y-91036797D01*
X137346662Y-91012203D01*
X137351242Y-90962317D01*
X137357772Y-90889050D01*
X137366087Y-90794314D01*
X137376021Y-90680020D01*
X137387410Y-90548081D01*
X137400087Y-90400407D01*
X137413889Y-90238910D01*
X137428649Y-90065502D01*
X137444203Y-89882094D01*
X137460384Y-89690599D01*
X137573973Y-88344033D01*
X137436379Y-88102814D01*
X137298785Y-87861595D01*
X136246299Y-87377744D01*
X136162149Y-87339060D01*
X136002903Y-87265858D01*
X135851415Y-87196230D01*
X135709656Y-87131080D01*
X135579596Y-87071315D01*
X135463207Y-87017839D01*
X135362462Y-86971560D01*
X135279331Y-86933382D01*
X135215785Y-86904211D01*
X135173796Y-86884953D01*
X135155337Y-86876515D01*
X135142464Y-86872014D01*
X135126615Y-86870762D01*
X135105135Y-86874232D01*
X135074717Y-86883597D01*
X135032053Y-86900032D01*
X134973832Y-86924710D01*
X134896748Y-86958806D01*
X134797491Y-87003494D01*
X134728064Y-87034990D01*
X134646231Y-87072431D01*
X134575650Y-87105081D01*
X134519910Y-87131265D01*
X134482600Y-87149310D01*
X134467308Y-87157541D01*
X134466691Y-87159354D01*
X134465168Y-87182624D01*
X134464456Y-87230095D01*
X134464499Y-87298799D01*
X134465244Y-87385764D01*
X134466635Y-87488023D01*
X134468617Y-87602606D01*
X134471137Y-87726543D01*
X134474139Y-87856865D01*
X134477568Y-87990604D01*
X134481370Y-88124790D01*
X134485491Y-88256453D01*
X134489875Y-88382624D01*
X134494901Y-88519448D01*
X134451916Y-88519448D01*
X134437386Y-88516093D01*
X134401678Y-88501648D01*
X134346169Y-88475446D01*
X134270111Y-88437102D01*
X134172759Y-88386230D01*
X134053364Y-88322444D01*
X133911180Y-88245358D01*
X133745459Y-88154586D01*
X133678455Y-88117755D01*
X133556778Y-88050962D01*
X133443815Y-87989066D01*
X133341834Y-87933303D01*
X133253099Y-87884909D01*
X133179880Y-87845118D01*
X133124441Y-87815167D01*
X133089050Y-87796291D01*
X133075974Y-87789724D01*
X133074476Y-87790152D01*
X133054022Y-87798656D01*
X133012986Y-87816727D01*
X132955210Y-87842606D01*
X132884534Y-87874536D01*
X132804801Y-87910757D01*
X132719852Y-87949512D01*
X132633528Y-87989042D01*
X132549670Y-88027590D01*
X132472119Y-88063397D01*
X132404718Y-88094705D01*
X132351307Y-88119756D01*
X132315728Y-88136792D01*
X132301822Y-88144053D01*
X131678672Y-88144053D01*
X131765977Y-87979927D01*
X131927693Y-87723313D01*
X132109125Y-87486170D01*
X132309386Y-87269133D01*
X132527594Y-87072837D01*
X132762864Y-86897917D01*
X133014310Y-86745010D01*
X133281049Y-86614750D01*
X133562196Y-86507774D01*
X133856867Y-86424716D01*
X134164177Y-86366213D01*
X134186598Y-86363326D01*
X134261277Y-86356837D01*
X134357692Y-86351572D01*
X134471317Y-86347530D01*
X134597628Y-86344711D01*
X134732100Y-86343118D01*
X134870206Y-86342746D01*
X135007423Y-86343599D01*
X135139226Y-86345674D01*
X135261089Y-86348973D01*
X135368488Y-86353496D01*
X135456896Y-86359243D01*
X135521791Y-86366213D01*
X135722729Y-86401353D01*
X136022150Y-86475851D01*
X136308250Y-86574457D01*
X136580167Y-86696552D01*
X136837042Y-86841518D01*
X137078012Y-87008736D01*
X137302217Y-87197588D01*
X137508795Y-87407454D01*
X137696886Y-87637717D01*
X137865627Y-87887756D01*
X138014159Y-88156954D01*
X138034220Y-88198096D01*
X138096425Y-88344033D01*
X138147291Y-88463370D01*
G37*
G36*
X137432100Y-89651566D02*
G01*
X137429816Y-89678373D01*
X137413816Y-89865960D01*
X137398447Y-90045781D01*
X137383886Y-90215816D01*
X137370306Y-90374044D01*
X137357882Y-90518446D01*
X137346787Y-90647002D01*
X137337197Y-90757693D01*
X137329284Y-90848497D01*
X137323225Y-90917395D01*
X137319192Y-90962368D01*
X137317361Y-90981395D01*
X137314331Y-90990875D01*
X137303215Y-91006739D01*
X137281997Y-91027963D01*
X137248495Y-91056286D01*
X137200524Y-91093445D01*
X137135899Y-91141179D01*
X137052438Y-91201224D01*
X136947956Y-91275320D01*
X136897971Y-91310569D01*
X136812919Y-91370356D01*
X136737046Y-91423446D01*
X136673096Y-91467932D01*
X136623815Y-91501909D01*
X136591946Y-91523471D01*
X136580232Y-91530713D01*
X136580024Y-91524931D01*
X136580925Y-91495310D01*
X136583174Y-91444029D01*
X136586585Y-91374991D01*
X136590970Y-91292099D01*
X136596142Y-91199256D01*
X136599297Y-91141055D01*
X136603412Y-91052900D01*
X136606158Y-90976608D01*
X136607429Y-90916216D01*
X136607118Y-90875760D01*
X136605119Y-90859275D01*
X136604806Y-90859111D01*
X136589345Y-90865644D01*
X136553560Y-90886188D01*
X136500063Y-90919086D01*
X136431466Y-90962681D01*
X136350382Y-91015313D01*
X136259422Y-91075325D01*
X136161198Y-91141058D01*
X135727072Y-91433566D01*
X135720056Y-91785636D01*
X135718226Y-91863642D01*
X135715386Y-91953368D01*
X135712117Y-92030680D01*
X135708616Y-92091667D01*
X135705082Y-92132415D01*
X135701711Y-92149011D01*
X135689740Y-92158199D01*
X135657179Y-92181979D01*
X135606826Y-92218289D01*
X135541342Y-92265222D01*
X135463389Y-92320871D01*
X135375626Y-92383330D01*
X135280717Y-92450691D01*
X135191819Y-92513558D01*
X135103715Y-92575556D01*
X135025261Y-92630447D01*
X134959100Y-92676396D01*
X134907873Y-92711569D01*
X134874223Y-92734130D01*
X134860793Y-92742245D01*
X134852996Y-92735962D01*
X134844397Y-92711851D01*
X134844024Y-92708030D01*
X134842776Y-92679477D01*
X134841160Y-92625591D01*
X134839213Y-92548346D01*
X134836977Y-92449713D01*
X134834491Y-92331664D01*
X134831794Y-92196171D01*
X134828925Y-92045207D01*
X134825926Y-91880743D01*
X134822835Y-91704753D01*
X134819692Y-91519207D01*
X134816537Y-91326077D01*
X134806476Y-90698878D01*
X135509769Y-90698878D01*
X135509783Y-90761221D01*
X135511197Y-90804162D01*
X135514135Y-90830843D01*
X135518719Y-90844404D01*
X135525074Y-90847988D01*
X135529339Y-90846446D01*
X135555630Y-90832097D01*
X135604210Y-90803114D01*
X135674254Y-90760020D01*
X135764933Y-90703338D01*
X135875423Y-90633591D01*
X136004895Y-90551302D01*
X136152524Y-90456995D01*
X136317482Y-90351191D01*
X136498943Y-90234414D01*
X136696081Y-90107187D01*
X136865200Y-89997902D01*
X136882694Y-89700469D01*
X136884400Y-89670661D01*
X136888781Y-89584278D01*
X136891800Y-89508585D01*
X136893337Y-89447911D01*
X136893269Y-89406586D01*
X136891474Y-89388937D01*
X136880360Y-89377825D01*
X136851217Y-89354876D01*
X136812131Y-89327273D01*
X136741503Y-89279709D01*
X136219148Y-89595127D01*
X135696794Y-89910546D01*
X135608395Y-90064239D01*
X135519996Y-90217933D01*
X135512752Y-90533442D01*
X135511034Y-90613992D01*
X135509769Y-90698878D01*
X134806476Y-90698878D01*
X134794814Y-89971879D01*
X134947319Y-89705249D01*
X135099825Y-89438619D01*
X136206321Y-88811419D01*
X136213542Y-88807326D01*
X136375821Y-88715478D01*
X136531287Y-88627732D01*
X136678183Y-88545066D01*
X136814750Y-88468457D01*
X136939232Y-88398885D01*
X137049869Y-88337326D01*
X137144905Y-88284761D01*
X137222581Y-88242166D01*
X137281138Y-88210520D01*
X137318820Y-88190801D01*
X137333868Y-88183988D01*
X137340553Y-88185964D01*
X137366947Y-88202536D01*
X137404901Y-88232318D01*
X137448608Y-88270912D01*
X137542298Y-88358066D01*
X137449450Y-89447911D01*
X137432100Y-89651566D01*
G37*
G36*
X134783731Y-91129468D02*
G01*
X134721650Y-91156929D01*
X134701425Y-91166132D01*
X134667916Y-91182712D01*
X134650799Y-91193161D01*
X134651944Y-91202875D01*
X134664304Y-91232737D01*
X134686575Y-91277126D01*
X134716199Y-91330662D01*
X134790370Y-91459392D01*
X134800712Y-92101409D01*
X134802415Y-92214670D01*
X134803978Y-92338290D01*
X134805081Y-92450511D01*
X134805712Y-92548555D01*
X134805860Y-92629646D01*
X134805515Y-92691005D01*
X134804665Y-92729858D01*
X134803298Y-92743426D01*
X134801801Y-92742668D01*
X134783201Y-92730163D01*
X134746025Y-92704044D01*
X134693396Y-92666573D01*
X134628440Y-92620015D01*
X134554280Y-92566635D01*
X134474042Y-92508697D01*
X134390850Y-92448464D01*
X134307828Y-92388202D01*
X134228103Y-92330174D01*
X134154797Y-92276646D01*
X134091035Y-92229880D01*
X134039943Y-92192142D01*
X134004645Y-92165695D01*
X133988265Y-92152805D01*
X133984912Y-92141127D01*
X133979890Y-92104470D01*
X133974180Y-92046862D01*
X133968122Y-91972203D01*
X133962059Y-91884393D01*
X133956330Y-91787333D01*
X133954457Y-91752941D01*
X133948768Y-91651591D01*
X133943893Y-91573849D01*
X133939376Y-91516291D01*
X133934757Y-91475491D01*
X133929581Y-91448021D01*
X133923390Y-91430458D01*
X133915725Y-91419374D01*
X133906131Y-91411345D01*
X133842906Y-91366377D01*
X133736218Y-91291133D01*
X133629878Y-91216856D01*
X133526391Y-91145239D01*
X133428262Y-91077979D01*
X133338000Y-91016772D01*
X133258108Y-90963311D01*
X133191094Y-90919293D01*
X133139464Y-90886413D01*
X133105723Y-90866367D01*
X133092378Y-90860849D01*
X133091023Y-90866740D01*
X133090490Y-90896880D01*
X133092258Y-90948640D01*
X133096119Y-91017945D01*
X133101866Y-91100721D01*
X133109292Y-91192893D01*
X133113711Y-91245345D01*
X133120643Y-91332199D01*
X133126132Y-91407073D01*
X133129909Y-91465976D01*
X133131706Y-91504912D01*
X133131254Y-91519888D01*
X133131165Y-91519927D01*
X133118261Y-91512574D01*
X133086857Y-91491686D01*
X133040949Y-91460098D01*
X132984532Y-91420646D01*
X132921600Y-91376166D01*
X132856147Y-91329493D01*
X132792169Y-91283463D01*
X132733659Y-91240910D01*
X132684612Y-91204671D01*
X132649024Y-91177582D01*
X132648641Y-91175635D01*
X132645690Y-91152134D01*
X132640147Y-91103752D01*
X132632244Y-91032689D01*
X132622213Y-90941144D01*
X132610288Y-90831317D01*
X132596700Y-90705406D01*
X132581684Y-90565613D01*
X132565470Y-90414135D01*
X132548292Y-90253173D01*
X132530383Y-90084926D01*
X132511976Y-89911593D01*
X132493302Y-89735374D01*
X132474595Y-89558469D01*
X132470930Y-89523741D01*
X132967542Y-89523741D01*
X132993108Y-89824992D01*
X133018674Y-90126243D01*
X133558763Y-90487597D01*
X133657562Y-90553579D01*
X133761456Y-90622689D01*
X133856161Y-90685398D01*
X133939326Y-90740164D01*
X134008599Y-90785445D01*
X134061630Y-90819697D01*
X134096069Y-90841380D01*
X134109564Y-90848950D01*
X134111231Y-90848867D01*
X134115116Y-90846749D01*
X134117766Y-90839301D01*
X134119145Y-90823283D01*
X134119216Y-90795452D01*
X134117945Y-90752564D01*
X134115294Y-90691377D01*
X134111229Y-90608648D01*
X134105713Y-90501136D01*
X134091149Y-90219372D01*
X134003972Y-90065307D01*
X133916796Y-89911241D01*
X133519944Y-89662257D01*
X133421216Y-89600205D01*
X133331087Y-89543748D01*
X133259552Y-89499948D01*
X133203758Y-89467805D01*
X133160849Y-89446323D01*
X133127972Y-89434503D01*
X133102271Y-89431348D01*
X133080894Y-89435858D01*
X133060986Y-89447036D01*
X133039692Y-89463885D01*
X133014158Y-89485405D01*
X132967542Y-89523741D01*
X132470930Y-89523741D01*
X132456087Y-89383076D01*
X132438011Y-89211396D01*
X132420600Y-89045627D01*
X132404087Y-88887970D01*
X132388703Y-88740623D01*
X132374682Y-88605787D01*
X132362256Y-88485660D01*
X132351658Y-88382442D01*
X132343121Y-88298333D01*
X132336878Y-88235532D01*
X132333160Y-88196239D01*
X132332201Y-88182652D01*
X132340571Y-88187080D01*
X132371119Y-88204538D01*
X132422003Y-88234077D01*
X132491109Y-88274447D01*
X132576320Y-88324397D01*
X132675521Y-88382676D01*
X132786598Y-88448035D01*
X132907434Y-88519222D01*
X133035914Y-88594988D01*
X133169923Y-88674082D01*
X133307346Y-88755252D01*
X133446067Y-88837250D01*
X133583970Y-88918824D01*
X133718941Y-88998724D01*
X133848864Y-89075699D01*
X133971624Y-89148499D01*
X134085105Y-89215873D01*
X134187192Y-89276571D01*
X134275770Y-89329343D01*
X134348723Y-89372938D01*
X134403936Y-89406105D01*
X134439293Y-89427594D01*
X134452680Y-89436155D01*
X134454601Y-89438443D01*
X134469750Y-89461098D01*
X134495826Y-89503190D01*
X134530486Y-89560833D01*
X134571386Y-89630142D01*
X134616181Y-89707230D01*
X134763024Y-89961807D01*
X134773378Y-90545638D01*
X134777808Y-90795452D01*
X134783731Y-91129468D01*
G37*
G36*
X136571084Y-91068497D02*
G01*
X136568392Y-91116424D01*
X136563081Y-91209888D01*
X136557650Y-91304361D01*
X136552930Y-91385327D01*
X136549814Y-91431405D01*
X136543819Y-91488807D01*
X136536790Y-91520262D01*
X136528497Y-91527100D01*
X136511817Y-91517494D01*
X136469384Y-91491895D01*
X136415384Y-91458384D01*
X136354238Y-91419808D01*
X136290369Y-91379015D01*
X136228197Y-91338852D01*
X136172145Y-91302167D01*
X136126633Y-91271806D01*
X136096083Y-91250618D01*
X136084917Y-91241449D01*
X136086261Y-91239600D01*
X136104635Y-91224740D01*
X136141875Y-91197669D01*
X136194565Y-91160791D01*
X136259293Y-91116505D01*
X136332645Y-91067213D01*
X136580373Y-90902133D01*
X136571084Y-91068497D01*
G37*
G36*
X133355200Y-91063534D02*
G01*
X133373717Y-91076498D01*
X133444963Y-91126628D01*
X133508033Y-91171381D01*
X133559209Y-91208095D01*
X133594777Y-91234109D01*
X133611019Y-91246761D01*
X133612993Y-91250454D01*
X133607283Y-91262572D01*
X133586131Y-91281773D01*
X133547290Y-91309735D01*
X133488509Y-91348137D01*
X133407538Y-91398660D01*
X133339111Y-91440525D01*
X133276536Y-91478287D01*
X133225950Y-91508261D01*
X133191304Y-91528106D01*
X133176547Y-91535483D01*
X133169125Y-91525607D01*
X133165341Y-91497984D01*
X133165290Y-91496080D01*
X133163607Y-91467169D01*
X133159902Y-91415930D01*
X133154561Y-91347332D01*
X133147969Y-91266344D01*
X133140512Y-91177933D01*
X133116366Y-90896474D01*
X133355200Y-91063534D01*
G37*
G36*
X134731240Y-91225243D02*
G01*
X134744686Y-91227091D01*
X134766658Y-91235165D01*
X134778006Y-91254832D01*
X134785127Y-91294287D01*
X134787423Y-91311797D01*
X134792034Y-91353018D01*
X134793868Y-91379491D01*
X134793868Y-91379947D01*
X134793389Y-91391980D01*
X134790079Y-91394039D01*
X134781128Y-91382548D01*
X134763727Y-91353927D01*
X134735066Y-91304599D01*
X134686094Y-91219972D01*
X134731240Y-91225243D01*
G37*
G36*
X134779835Y-91185746D02*
G01*
X134772898Y-91194450D01*
X134748260Y-91199564D01*
X134740652Y-91199408D01*
X134726714Y-91195982D01*
X134737735Y-91185746D01*
X134745441Y-91181046D01*
X134771000Y-91172688D01*
X134779835Y-91185746D01*
G37*
G36*
X134784438Y-89445642D02*
G01*
X134867402Y-89446184D01*
X134939349Y-89447493D01*
X134996016Y-89449429D01*
X135033142Y-89451851D01*
X135046464Y-89454619D01*
X135040228Y-89468075D01*
X135021925Y-89501999D01*
X134993773Y-89552310D01*
X134958003Y-89615027D01*
X134916843Y-89686166D01*
X134876563Y-89754683D01*
X134839549Y-89816365D01*
X134809469Y-89865140D01*
X134788675Y-89897197D01*
X134779515Y-89908729D01*
X134779300Y-89908668D01*
X134769250Y-89895544D01*
X134747639Y-89862105D01*
X134716770Y-89812080D01*
X134678947Y-89749196D01*
X134636472Y-89677182D01*
X134501137Y-89445635D01*
X134773801Y-89445635D01*
X134784438Y-89445642D01*
G37*
G36*
X135255313Y-86956496D02*
G01*
X135282086Y-86968791D01*
X135336161Y-86993628D01*
X135411405Y-87028192D01*
X135505431Y-87071386D01*
X135615852Y-87122113D01*
X135740280Y-87179276D01*
X135876329Y-87241779D01*
X136021611Y-87308526D01*
X136173740Y-87378419D01*
X136330327Y-87450361D01*
X137270378Y-87882263D01*
X137293742Y-88007900D01*
X137298593Y-88035793D01*
X137305737Y-88088407D01*
X137308282Y-88127329D01*
X137305632Y-88145672D01*
X137305617Y-88145688D01*
X137291781Y-88154349D01*
X137255270Y-88175809D01*
X137197834Y-88209067D01*
X137121221Y-88253124D01*
X137027180Y-88306984D01*
X136917460Y-88369646D01*
X136793809Y-88440112D01*
X136657975Y-88517383D01*
X136511709Y-88600460D01*
X136356757Y-88688346D01*
X136194869Y-88780041D01*
X135095580Y-89402273D01*
X134782498Y-89402905D01*
X134469416Y-89403536D01*
X133417775Y-88784368D01*
X133286749Y-88707150D01*
X133135301Y-88617705D01*
X132992413Y-88533110D01*
X132859826Y-88454405D01*
X132739277Y-88382627D01*
X132632504Y-88318818D01*
X132541246Y-88264016D01*
X132467242Y-88219259D01*
X132412229Y-88185589D01*
X132377947Y-88164043D01*
X132366133Y-88155662D01*
X132366324Y-88155261D01*
X132381499Y-88145905D01*
X132418629Y-88126816D01*
X132474460Y-88099560D01*
X132545739Y-88065704D01*
X132629214Y-88026814D01*
X132721633Y-87984457D01*
X133077132Y-87822790D01*
X133735528Y-88185056D01*
X134393923Y-88547321D01*
X134573450Y-88547418D01*
X134752978Y-88547514D01*
X135279617Y-88273868D01*
X135341231Y-88241893D01*
X135449689Y-88185814D01*
X135549072Y-88134687D01*
X135636746Y-88089852D01*
X135710077Y-88052648D01*
X135766431Y-88024415D01*
X135803175Y-88006493D01*
X135817673Y-88000221D01*
X135819367Y-87998981D01*
X135822803Y-87979712D01*
X135823315Y-87943668D01*
X135821402Y-87899339D01*
X135817558Y-87855214D01*
X135812279Y-87819781D01*
X135806062Y-87801531D01*
X135805497Y-87801104D01*
X135787849Y-87791561D01*
X135747764Y-87771186D01*
X135687694Y-87741188D01*
X135610092Y-87702778D01*
X135517409Y-87657166D01*
X135412098Y-87605563D01*
X135296609Y-87549179D01*
X135173396Y-87489224D01*
X135154689Y-87480134D01*
X135032347Y-87420553D01*
X134918014Y-87364652D01*
X134814157Y-87313653D01*
X134723239Y-87268776D01*
X134647727Y-87231239D01*
X134590084Y-87202264D01*
X134552778Y-87183071D01*
X134538271Y-87174879D01*
X134540883Y-87170823D01*
X134563808Y-87156078D01*
X134606946Y-87132795D01*
X134666899Y-87102708D01*
X134740273Y-87067553D01*
X134823670Y-87029065D01*
X135120350Y-86894533D01*
X135255313Y-86956496D01*
G37*
G36*
X134495862Y-87202032D02*
G01*
X134516239Y-87210496D01*
X134558713Y-87229809D01*
X134620907Y-87258842D01*
X134700441Y-87296466D01*
X134794937Y-87341552D01*
X134902017Y-87392970D01*
X135019300Y-87449594D01*
X135144410Y-87510292D01*
X135790221Y-87824357D01*
X135790221Y-87890686D01*
X135789436Y-87911000D01*
X135783166Y-87950258D01*
X135772680Y-87973149D01*
X135769533Y-87975365D01*
X135745063Y-87989618D01*
X135699438Y-88014786D01*
X135635401Y-88049401D01*
X135555692Y-88091996D01*
X135463052Y-88141105D01*
X135360223Y-88195258D01*
X135249945Y-88252990D01*
X134744752Y-88516698D01*
X134635995Y-88518073D01*
X134527238Y-88519448D01*
X134526222Y-88480856D01*
X134525912Y-88469535D01*
X134524835Y-88430990D01*
X134523106Y-88369474D01*
X134520811Y-88288056D01*
X134518037Y-88189810D01*
X134514871Y-88077805D01*
X134511399Y-87955114D01*
X134507708Y-87824807D01*
X134505173Y-87733688D01*
X134501913Y-87610780D01*
X134499124Y-87498738D01*
X134496869Y-87400428D01*
X134495209Y-87318713D01*
X134494203Y-87256458D01*
X134493915Y-87216528D01*
X134494404Y-87201788D01*
X134495862Y-87202032D01*
G37*
G36*
X137330108Y-87986968D02*
G01*
X137348137Y-88015396D01*
X137374401Y-88059223D01*
X137406013Y-88113732D01*
X137427084Y-88151352D01*
X137452734Y-88201681D01*
X137462276Y-88229411D01*
X137455658Y-88234826D01*
X137432825Y-88218212D01*
X137393727Y-88179852D01*
X137390897Y-88176864D01*
X137354720Y-88124310D01*
X137334018Y-88057148D01*
X137328525Y-88026282D01*
X137323688Y-87992774D01*
X137323275Y-87978470D01*
X137330108Y-87986968D01*
G37*
G36*
X136211047Y-89659998D02*
G01*
X136242865Y-89675398D01*
X136293031Y-89701342D01*
X136357988Y-89735951D01*
X136434180Y-89777349D01*
X136518049Y-89823657D01*
X136817866Y-89990457D01*
X136728546Y-90046982D01*
X136707344Y-90060459D01*
X136660895Y-90090100D01*
X136595864Y-90131672D01*
X136515107Y-90183347D01*
X136421479Y-90243296D01*
X136317837Y-90309692D01*
X136207037Y-90380707D01*
X136091934Y-90454511D01*
X135990834Y-90519344D01*
X135886307Y-90586359D01*
X135791409Y-90647185D01*
X135708470Y-90700328D01*
X135639824Y-90744294D01*
X135587804Y-90777588D01*
X135554742Y-90798716D01*
X135542970Y-90806183D01*
X135542848Y-90805042D01*
X135542869Y-90784417D01*
X135543507Y-90741057D01*
X135544686Y-90679072D01*
X135546329Y-90602570D01*
X135548361Y-90515663D01*
X135555422Y-90224475D01*
X135631709Y-90091160D01*
X135657122Y-90047712D01*
X135688939Y-89995965D01*
X135715073Y-89956410D01*
X135731567Y-89935228D01*
X135752140Y-89919718D01*
X135791138Y-89893990D01*
X135843798Y-89860900D01*
X135905436Y-89823226D01*
X135971368Y-89783747D01*
X136036910Y-89745240D01*
X136097378Y-89710483D01*
X136148090Y-89682255D01*
X136184361Y-89663332D01*
X136201507Y-89656495D01*
X136211047Y-89659998D01*
G37*
G36*
X136798070Y-89367574D02*
G01*
X136873785Y-89404708D01*
X136865838Y-89463763D01*
X136865447Y-89466805D01*
X136861696Y-89506101D01*
X136857400Y-89565084D01*
X136853060Y-89636292D01*
X136849175Y-89712265D01*
X136848446Y-89727702D01*
X136844628Y-89798313D01*
X136840593Y-89858963D01*
X136836778Y-89903625D01*
X136833622Y-89926271D01*
X136828726Y-89939379D01*
X136818768Y-89950829D01*
X136810060Y-89947294D01*
X136780281Y-89932212D01*
X136733631Y-89907398D01*
X136674263Y-89875168D01*
X136606328Y-89837835D01*
X136533980Y-89797714D01*
X136461370Y-89757121D01*
X136392651Y-89718368D01*
X136331975Y-89683772D01*
X136283496Y-89655647D01*
X136251364Y-89636307D01*
X136239733Y-89628066D01*
X136240202Y-89627346D01*
X136256009Y-89615742D01*
X136291606Y-89592502D01*
X136343383Y-89559904D01*
X136407734Y-89520226D01*
X136481050Y-89475745D01*
X136722356Y-89330440D01*
X136798070Y-89367574D01*
G37*
G36*
X133780126Y-89862778D02*
G01*
X133809491Y-89881653D01*
X133848817Y-89909291D01*
X133879383Y-89936517D01*
X133906817Y-89969551D01*
X133936747Y-90014612D01*
X133974800Y-90077921D01*
X134061331Y-90224475D01*
X134070164Y-90456022D01*
X134072126Y-90504540D01*
X134075864Y-90585166D01*
X134079757Y-90656859D01*
X134083447Y-90713246D01*
X134086575Y-90747955D01*
X134094153Y-90808340D01*
X133584480Y-90468895D01*
X133512243Y-90420782D01*
X133410268Y-90352855D01*
X133317344Y-90290948D01*
X133235855Y-90236650D01*
X133168187Y-90191550D01*
X133116725Y-90157238D01*
X133083854Y-90135304D01*
X133071958Y-90127336D01*
X133078116Y-90123181D01*
X133105471Y-90107223D01*
X133151682Y-90081050D01*
X133213458Y-90046507D01*
X133287510Y-90005444D01*
X133370546Y-89959706D01*
X133671984Y-89794189D01*
X133780126Y-89862778D01*
G37*
G36*
X133392862Y-89618161D02*
G01*
X133640752Y-89773891D01*
X133350763Y-89932376D01*
X133298722Y-89960746D01*
X133221405Y-90002613D01*
X133154595Y-90038445D01*
X133101814Y-90066371D01*
X133066584Y-90084517D01*
X133052425Y-90091011D01*
X133049804Y-90080333D01*
X133045306Y-90046487D01*
X133039588Y-89994521D01*
X133033118Y-89929628D01*
X133026362Y-89857000D01*
X133019787Y-89781830D01*
X133013861Y-89709310D01*
X133009050Y-89644633D01*
X133005821Y-89592991D01*
X133004641Y-89559578D01*
X133011106Y-89547896D01*
X133036591Y-89525645D01*
X133074807Y-89501318D01*
X133144973Y-89462430D01*
X133392862Y-89618161D01*
G37*
G36*
X184147291Y-81463370D02*
G01*
X184234283Y-81733806D01*
X184295743Y-82011795D01*
X184332218Y-82299729D01*
X184344254Y-82600000D01*
X184343844Y-82657053D01*
X184327705Y-82951633D01*
X184287548Y-83234128D01*
X184222650Y-83507717D01*
X184132285Y-83775574D01*
X184015730Y-84040876D01*
X184004482Y-84063604D01*
X183859655Y-84322769D01*
X183693012Y-84565772D01*
X183506145Y-84791485D01*
X183300649Y-84998779D01*
X183078118Y-85186526D01*
X182840146Y-85353599D01*
X182588328Y-85498868D01*
X182324258Y-85621205D01*
X182049530Y-85719483D01*
X181765737Y-85792573D01*
X181474475Y-85839347D01*
X181440258Y-85842253D01*
X181371760Y-85845739D01*
X181282782Y-85848588D01*
X181177729Y-85850796D01*
X181061005Y-85852357D01*
X180937014Y-85853266D01*
X180810158Y-85853516D01*
X180684843Y-85853103D01*
X180565471Y-85852021D01*
X180456447Y-85850264D01*
X180362174Y-85847828D01*
X180287056Y-85844706D01*
X180235497Y-85840893D01*
X180220485Y-85839227D01*
X179924501Y-85791892D01*
X179637158Y-85718458D01*
X179359871Y-85619918D01*
X179094057Y-85497263D01*
X178841131Y-85351485D01*
X178602510Y-85183574D01*
X178379608Y-84994523D01*
X178173842Y-84785324D01*
X177986629Y-84556967D01*
X177819383Y-84310445D01*
X177673521Y-84046749D01*
X177648958Y-83996142D01*
X177536652Y-83730892D01*
X177450411Y-83461428D01*
X177389599Y-83184976D01*
X177353578Y-82898758D01*
X177341713Y-82600000D01*
X177342005Y-82552167D01*
X177357825Y-82253981D01*
X177398167Y-81967759D01*
X177463581Y-81691108D01*
X177554612Y-81421637D01*
X177671809Y-81156954D01*
X177678672Y-81144053D01*
X178301822Y-81144053D01*
X178302340Y-81156179D01*
X178305520Y-81194163D01*
X178311209Y-81255840D01*
X178319179Y-81339008D01*
X178329203Y-81441465D01*
X178341055Y-81561011D01*
X178354507Y-81695444D01*
X178369334Y-81842561D01*
X178385307Y-82000162D01*
X178402200Y-82166045D01*
X178419786Y-82338009D01*
X178437839Y-82513852D01*
X178456131Y-82691372D01*
X178474435Y-82868368D01*
X178492526Y-83042639D01*
X178510174Y-83211983D01*
X178527155Y-83374198D01*
X178543241Y-83527083D01*
X178558204Y-83668437D01*
X178571819Y-83796058D01*
X178583859Y-83907744D01*
X178594095Y-84001294D01*
X178602302Y-84074506D01*
X178608253Y-84125179D01*
X178611721Y-84151112D01*
X178614305Y-84161108D01*
X178623728Y-84178679D01*
X178642046Y-84199841D01*
X178672090Y-84227081D01*
X178716689Y-84262886D01*
X178778670Y-84309743D01*
X178860863Y-84370139D01*
X178883075Y-84386321D01*
X178955315Y-84438748D01*
X179020331Y-84485633D01*
X179074267Y-84524213D01*
X179113270Y-84551729D01*
X179133485Y-84565420D01*
X179134612Y-84566099D01*
X179146834Y-84571089D01*
X179162122Y-84571006D01*
X179183938Y-84564224D01*
X179215743Y-84549118D01*
X179260998Y-84524063D01*
X179323164Y-84487435D01*
X179405701Y-84437609D01*
X179420206Y-84428810D01*
X179493013Y-84384781D01*
X179557036Y-84346276D01*
X179608479Y-84315564D01*
X179643544Y-84294913D01*
X179658435Y-84286592D01*
X179664308Y-84287667D01*
X179689322Y-84300618D01*
X179727396Y-84324349D01*
X179772527Y-84354665D01*
X179818713Y-84387372D01*
X179859953Y-84418277D01*
X179890246Y-84443186D01*
X179903588Y-84457904D01*
X179905061Y-84468217D01*
X179908101Y-84503805D01*
X179912069Y-84560494D01*
X179916705Y-84634263D01*
X179921746Y-84721088D01*
X179926931Y-84816950D01*
X179944862Y-85160474D01*
X180379890Y-85479381D01*
X180398410Y-85492949D01*
X180494627Y-85563151D01*
X180583508Y-85627533D01*
X180662513Y-85684289D01*
X180729101Y-85731611D01*
X180780731Y-85767689D01*
X180814861Y-85790717D01*
X180828951Y-85798886D01*
X180829089Y-85798880D01*
X180844025Y-85790634D01*
X180878641Y-85768276D01*
X180929899Y-85733936D01*
X180994762Y-85689742D01*
X181070191Y-85637823D01*
X181153149Y-85580309D01*
X181240599Y-85519328D01*
X181329503Y-85457011D01*
X181416824Y-85395484D01*
X181499523Y-85336878D01*
X181574563Y-85283322D01*
X181638907Y-85236945D01*
X181689516Y-85199875D01*
X181723354Y-85174243D01*
X181737382Y-85162176D01*
X181739801Y-85152198D01*
X181742980Y-85117343D01*
X181745550Y-85062911D01*
X181747292Y-84993941D01*
X181747991Y-84915470D01*
X181748161Y-84876234D01*
X181749327Y-84785991D01*
X181751399Y-84698890D01*
X181754153Y-84623237D01*
X181757365Y-84567342D01*
X181766440Y-84450760D01*
X181896111Y-84360353D01*
X181942518Y-84328683D01*
X181989440Y-84298243D01*
X182024100Y-84277567D01*
X182041220Y-84269945D01*
X182043190Y-84270421D01*
X182064616Y-84281064D01*
X182104967Y-84304012D01*
X182160466Y-84337026D01*
X182227337Y-84377871D01*
X182301805Y-84424310D01*
X182321206Y-84436497D01*
X182394047Y-84481720D01*
X182458289Y-84520784D01*
X182510166Y-84551455D01*
X182545914Y-84571497D01*
X182561769Y-84578674D01*
X182569493Y-84574966D01*
X182598197Y-84557129D01*
X182645089Y-84526234D01*
X182707380Y-84484172D01*
X182782278Y-84432833D01*
X182866993Y-84374105D01*
X182958734Y-84309879D01*
X183023134Y-84264584D01*
X183109310Y-84203978D01*
X183185983Y-84150061D01*
X183250464Y-84104726D01*
X183300060Y-84069864D01*
X183332083Y-84047366D01*
X183343840Y-84039124D01*
X183344197Y-84036797D01*
X183346662Y-84012203D01*
X183351242Y-83962317D01*
X183357772Y-83889050D01*
X183366087Y-83794314D01*
X183376021Y-83680020D01*
X183387410Y-83548081D01*
X183400087Y-83400407D01*
X183413889Y-83238910D01*
X183428649Y-83065502D01*
X183444203Y-82882094D01*
X183460384Y-82690599D01*
X183573973Y-81344033D01*
X183436379Y-81102814D01*
X183298785Y-80861595D01*
X182246299Y-80377744D01*
X182162149Y-80339060D01*
X182002903Y-80265858D01*
X181851415Y-80196230D01*
X181709656Y-80131080D01*
X181579596Y-80071315D01*
X181463207Y-80017839D01*
X181362462Y-79971560D01*
X181279331Y-79933382D01*
X181215785Y-79904211D01*
X181173796Y-79884953D01*
X181155337Y-79876515D01*
X181142464Y-79872014D01*
X181126615Y-79870762D01*
X181105135Y-79874232D01*
X181074717Y-79883597D01*
X181032053Y-79900032D01*
X180973832Y-79924710D01*
X180896748Y-79958806D01*
X180797491Y-80003494D01*
X180728064Y-80034990D01*
X180646231Y-80072431D01*
X180575650Y-80105081D01*
X180519910Y-80131265D01*
X180482600Y-80149310D01*
X180467308Y-80157541D01*
X180466691Y-80159354D01*
X180465168Y-80182624D01*
X180464456Y-80230095D01*
X180464499Y-80298799D01*
X180465244Y-80385764D01*
X180466635Y-80488023D01*
X180468617Y-80602606D01*
X180471137Y-80726543D01*
X180474139Y-80856865D01*
X180477568Y-80990604D01*
X180481370Y-81124790D01*
X180485491Y-81256453D01*
X180489875Y-81382624D01*
X180494901Y-81519448D01*
X180451916Y-81519448D01*
X180437386Y-81516093D01*
X180401678Y-81501648D01*
X180346169Y-81475446D01*
X180270111Y-81437102D01*
X180172759Y-81386230D01*
X180053364Y-81322444D01*
X179911180Y-81245358D01*
X179745459Y-81154586D01*
X179678455Y-81117755D01*
X179556778Y-81050962D01*
X179443815Y-80989066D01*
X179341834Y-80933303D01*
X179253099Y-80884909D01*
X179179880Y-80845118D01*
X179124441Y-80815167D01*
X179089050Y-80796291D01*
X179075974Y-80789724D01*
X179074476Y-80790152D01*
X179054022Y-80798656D01*
X179012986Y-80816727D01*
X178955210Y-80842606D01*
X178884534Y-80874536D01*
X178804801Y-80910757D01*
X178719852Y-80949512D01*
X178633528Y-80989042D01*
X178549670Y-81027590D01*
X178472119Y-81063397D01*
X178404718Y-81094705D01*
X178351307Y-81119756D01*
X178315728Y-81136792D01*
X178301822Y-81144053D01*
X177678672Y-81144053D01*
X177765977Y-80979927D01*
X177927693Y-80723313D01*
X178109125Y-80486170D01*
X178309386Y-80269133D01*
X178527594Y-80072837D01*
X178762864Y-79897917D01*
X179014310Y-79745010D01*
X179281049Y-79614750D01*
X179562196Y-79507774D01*
X179856867Y-79424716D01*
X180164177Y-79366213D01*
X180186598Y-79363326D01*
X180261277Y-79356837D01*
X180357692Y-79351572D01*
X180471317Y-79347530D01*
X180597628Y-79344711D01*
X180732100Y-79343118D01*
X180870206Y-79342746D01*
X181007423Y-79343599D01*
X181139226Y-79345674D01*
X181261089Y-79348973D01*
X181368488Y-79353496D01*
X181456896Y-79359243D01*
X181521791Y-79366213D01*
X181722729Y-79401353D01*
X182022150Y-79475851D01*
X182308250Y-79574457D01*
X182580167Y-79696552D01*
X182837042Y-79841518D01*
X183078012Y-80008736D01*
X183302217Y-80197588D01*
X183508795Y-80407454D01*
X183696886Y-80637717D01*
X183865627Y-80887756D01*
X184014159Y-81156954D01*
X184034220Y-81198096D01*
X184096425Y-81344033D01*
X184147291Y-81463370D01*
G37*
G36*
X183432100Y-82651566D02*
G01*
X183429816Y-82678373D01*
X183413816Y-82865960D01*
X183398447Y-83045781D01*
X183383886Y-83215816D01*
X183370306Y-83374044D01*
X183357882Y-83518446D01*
X183346787Y-83647002D01*
X183337197Y-83757693D01*
X183329284Y-83848497D01*
X183323225Y-83917395D01*
X183319192Y-83962368D01*
X183317361Y-83981395D01*
X183314331Y-83990875D01*
X183303215Y-84006739D01*
X183281997Y-84027963D01*
X183248495Y-84056286D01*
X183200524Y-84093445D01*
X183135899Y-84141179D01*
X183052438Y-84201224D01*
X182947956Y-84275320D01*
X182897971Y-84310569D01*
X182812919Y-84370356D01*
X182737046Y-84423446D01*
X182673096Y-84467932D01*
X182623815Y-84501909D01*
X182591946Y-84523471D01*
X182580232Y-84530713D01*
X182580024Y-84524931D01*
X182580925Y-84495310D01*
X182583174Y-84444029D01*
X182586585Y-84374991D01*
X182590970Y-84292099D01*
X182596142Y-84199256D01*
X182599297Y-84141055D01*
X182603412Y-84052900D01*
X182606158Y-83976608D01*
X182607429Y-83916216D01*
X182607118Y-83875760D01*
X182605119Y-83859275D01*
X182604806Y-83859111D01*
X182589345Y-83865644D01*
X182553560Y-83886188D01*
X182500063Y-83919086D01*
X182431466Y-83962681D01*
X182350382Y-84015313D01*
X182259422Y-84075325D01*
X182161198Y-84141058D01*
X181727072Y-84433566D01*
X181720056Y-84785636D01*
X181718226Y-84863642D01*
X181715386Y-84953368D01*
X181712117Y-85030680D01*
X181708616Y-85091667D01*
X181705082Y-85132415D01*
X181701711Y-85149011D01*
X181689740Y-85158199D01*
X181657179Y-85181979D01*
X181606826Y-85218289D01*
X181541342Y-85265222D01*
X181463389Y-85320871D01*
X181375626Y-85383330D01*
X181280717Y-85450691D01*
X181191819Y-85513558D01*
X181103715Y-85575556D01*
X181025261Y-85630447D01*
X180959100Y-85676396D01*
X180907873Y-85711569D01*
X180874223Y-85734130D01*
X180860793Y-85742245D01*
X180852996Y-85735962D01*
X180844397Y-85711851D01*
X180844024Y-85708030D01*
X180842776Y-85679477D01*
X180841160Y-85625591D01*
X180839213Y-85548346D01*
X180836977Y-85449713D01*
X180834491Y-85331664D01*
X180831794Y-85196171D01*
X180828925Y-85045207D01*
X180825926Y-84880743D01*
X180822835Y-84704753D01*
X180819692Y-84519207D01*
X180816537Y-84326077D01*
X180806476Y-83698878D01*
X181509769Y-83698878D01*
X181509783Y-83761221D01*
X181511197Y-83804162D01*
X181514135Y-83830843D01*
X181518719Y-83844404D01*
X181525074Y-83847988D01*
X181529339Y-83846446D01*
X181555630Y-83832097D01*
X181604210Y-83803114D01*
X181674254Y-83760020D01*
X181764933Y-83703338D01*
X181875423Y-83633591D01*
X182004895Y-83551302D01*
X182152524Y-83456995D01*
X182317482Y-83351191D01*
X182498943Y-83234414D01*
X182696081Y-83107187D01*
X182865200Y-82997902D01*
X182882694Y-82700469D01*
X182884400Y-82670661D01*
X182888781Y-82584278D01*
X182891800Y-82508585D01*
X182893337Y-82447911D01*
X182893269Y-82406586D01*
X182891474Y-82388937D01*
X182880360Y-82377825D01*
X182851217Y-82354876D01*
X182812131Y-82327273D01*
X182741503Y-82279709D01*
X182219148Y-82595127D01*
X181696794Y-82910546D01*
X181608395Y-83064239D01*
X181519996Y-83217933D01*
X181512752Y-83533442D01*
X181511034Y-83613992D01*
X181509769Y-83698878D01*
X180806476Y-83698878D01*
X180794814Y-82971879D01*
X180947319Y-82705249D01*
X181099825Y-82438619D01*
X182206321Y-81811419D01*
X182213542Y-81807326D01*
X182375821Y-81715478D01*
X182531287Y-81627732D01*
X182678183Y-81545066D01*
X182814750Y-81468457D01*
X182939232Y-81398885D01*
X183049869Y-81337326D01*
X183144905Y-81284761D01*
X183222581Y-81242166D01*
X183281138Y-81210520D01*
X183318820Y-81190801D01*
X183333868Y-81183988D01*
X183340553Y-81185964D01*
X183366947Y-81202536D01*
X183404901Y-81232318D01*
X183448608Y-81270912D01*
X183542298Y-81358066D01*
X183449450Y-82447911D01*
X183432100Y-82651566D01*
G37*
G36*
X180783731Y-84129468D02*
G01*
X180721650Y-84156929D01*
X180701425Y-84166132D01*
X180667916Y-84182712D01*
X180650799Y-84193161D01*
X180651944Y-84202875D01*
X180664304Y-84232737D01*
X180686575Y-84277126D01*
X180716199Y-84330662D01*
X180790370Y-84459392D01*
X180800712Y-85101409D01*
X180802415Y-85214670D01*
X180803978Y-85338290D01*
X180805081Y-85450511D01*
X180805712Y-85548555D01*
X180805860Y-85629646D01*
X180805515Y-85691005D01*
X180804665Y-85729858D01*
X180803298Y-85743426D01*
X180801801Y-85742668D01*
X180783201Y-85730163D01*
X180746025Y-85704044D01*
X180693396Y-85666573D01*
X180628440Y-85620015D01*
X180554280Y-85566635D01*
X180474042Y-85508697D01*
X180390850Y-85448464D01*
X180307828Y-85388202D01*
X180228103Y-85330174D01*
X180154797Y-85276646D01*
X180091035Y-85229880D01*
X180039943Y-85192142D01*
X180004645Y-85165695D01*
X179988265Y-85152805D01*
X179984912Y-85141127D01*
X179979890Y-85104470D01*
X179974180Y-85046862D01*
X179968122Y-84972203D01*
X179962059Y-84884393D01*
X179956330Y-84787333D01*
X179954457Y-84752941D01*
X179948768Y-84651591D01*
X179943893Y-84573849D01*
X179939376Y-84516291D01*
X179934757Y-84475491D01*
X179929581Y-84448021D01*
X179923390Y-84430458D01*
X179915725Y-84419374D01*
X179906131Y-84411345D01*
X179842906Y-84366377D01*
X179736218Y-84291133D01*
X179629878Y-84216856D01*
X179526391Y-84145239D01*
X179428262Y-84077979D01*
X179338000Y-84016772D01*
X179258108Y-83963311D01*
X179191094Y-83919293D01*
X179139464Y-83886413D01*
X179105723Y-83866367D01*
X179092378Y-83860849D01*
X179091023Y-83866740D01*
X179090490Y-83896880D01*
X179092258Y-83948640D01*
X179096119Y-84017945D01*
X179101866Y-84100721D01*
X179109292Y-84192893D01*
X179113711Y-84245345D01*
X179120643Y-84332199D01*
X179126132Y-84407073D01*
X179129909Y-84465976D01*
X179131706Y-84504912D01*
X179131254Y-84519888D01*
X179131165Y-84519927D01*
X179118261Y-84512574D01*
X179086857Y-84491686D01*
X179040949Y-84460098D01*
X178984532Y-84420646D01*
X178921600Y-84376166D01*
X178856147Y-84329493D01*
X178792169Y-84283463D01*
X178733659Y-84240910D01*
X178684612Y-84204671D01*
X178649024Y-84177582D01*
X178648641Y-84175635D01*
X178645690Y-84152134D01*
X178640147Y-84103752D01*
X178632244Y-84032689D01*
X178622213Y-83941144D01*
X178610288Y-83831317D01*
X178596700Y-83705406D01*
X178581684Y-83565613D01*
X178565470Y-83414135D01*
X178548292Y-83253173D01*
X178530383Y-83084926D01*
X178511976Y-82911593D01*
X178493302Y-82735374D01*
X178474595Y-82558469D01*
X178470930Y-82523741D01*
X178967542Y-82523741D01*
X178993108Y-82824992D01*
X179018674Y-83126243D01*
X179558763Y-83487597D01*
X179657562Y-83553579D01*
X179761456Y-83622689D01*
X179856161Y-83685398D01*
X179939326Y-83740164D01*
X180008599Y-83785445D01*
X180061630Y-83819697D01*
X180096069Y-83841380D01*
X180109564Y-83848950D01*
X180111231Y-83848867D01*
X180115116Y-83846749D01*
X180117766Y-83839301D01*
X180119145Y-83823283D01*
X180119216Y-83795452D01*
X180117945Y-83752564D01*
X180115294Y-83691377D01*
X180111229Y-83608648D01*
X180105713Y-83501136D01*
X180091149Y-83219372D01*
X180003972Y-83065307D01*
X179916796Y-82911241D01*
X179519944Y-82662257D01*
X179421216Y-82600205D01*
X179331087Y-82543748D01*
X179259552Y-82499948D01*
X179203758Y-82467805D01*
X179160849Y-82446323D01*
X179127972Y-82434503D01*
X179102271Y-82431348D01*
X179080894Y-82435858D01*
X179060986Y-82447036D01*
X179039692Y-82463885D01*
X179014158Y-82485405D01*
X178967542Y-82523741D01*
X178470930Y-82523741D01*
X178456087Y-82383076D01*
X178438011Y-82211396D01*
X178420600Y-82045627D01*
X178404087Y-81887970D01*
X178388703Y-81740623D01*
X178374682Y-81605787D01*
X178362256Y-81485660D01*
X178351658Y-81382442D01*
X178343121Y-81298333D01*
X178336878Y-81235532D01*
X178333160Y-81196239D01*
X178332201Y-81182652D01*
X178340571Y-81187080D01*
X178371119Y-81204538D01*
X178422003Y-81234077D01*
X178491109Y-81274447D01*
X178576320Y-81324397D01*
X178675521Y-81382676D01*
X178786598Y-81448035D01*
X178907434Y-81519222D01*
X179035914Y-81594988D01*
X179169923Y-81674082D01*
X179307346Y-81755252D01*
X179446067Y-81837250D01*
X179583970Y-81918824D01*
X179718941Y-81998724D01*
X179848864Y-82075699D01*
X179971624Y-82148499D01*
X180085105Y-82215873D01*
X180187192Y-82276571D01*
X180275770Y-82329343D01*
X180348723Y-82372938D01*
X180403936Y-82406105D01*
X180439293Y-82427594D01*
X180452680Y-82436155D01*
X180454601Y-82438443D01*
X180469750Y-82461098D01*
X180495826Y-82503190D01*
X180530486Y-82560833D01*
X180571386Y-82630142D01*
X180616181Y-82707230D01*
X180763024Y-82961807D01*
X180773378Y-83545638D01*
X180777808Y-83795452D01*
X180783731Y-84129468D01*
G37*
G36*
X182571084Y-84068497D02*
G01*
X182568392Y-84116424D01*
X182563081Y-84209888D01*
X182557650Y-84304361D01*
X182552930Y-84385327D01*
X182549814Y-84431405D01*
X182543819Y-84488807D01*
X182536790Y-84520262D01*
X182528497Y-84527100D01*
X182511817Y-84517494D01*
X182469384Y-84491895D01*
X182415384Y-84458384D01*
X182354238Y-84419808D01*
X182290369Y-84379015D01*
X182228197Y-84338852D01*
X182172145Y-84302167D01*
X182126633Y-84271806D01*
X182096083Y-84250618D01*
X182084917Y-84241449D01*
X182086261Y-84239600D01*
X182104635Y-84224740D01*
X182141875Y-84197669D01*
X182194565Y-84160791D01*
X182259293Y-84116505D01*
X182332645Y-84067213D01*
X182580373Y-83902133D01*
X182571084Y-84068497D01*
G37*
G36*
X179355200Y-84063534D02*
G01*
X179373717Y-84076498D01*
X179444963Y-84126628D01*
X179508033Y-84171381D01*
X179559209Y-84208095D01*
X179594777Y-84234109D01*
X179611019Y-84246761D01*
X179612993Y-84250454D01*
X179607283Y-84262572D01*
X179586131Y-84281773D01*
X179547290Y-84309735D01*
X179488509Y-84348137D01*
X179407538Y-84398660D01*
X179339111Y-84440525D01*
X179276536Y-84478287D01*
X179225950Y-84508261D01*
X179191304Y-84528106D01*
X179176547Y-84535483D01*
X179169125Y-84525607D01*
X179165341Y-84497984D01*
X179165290Y-84496080D01*
X179163607Y-84467169D01*
X179159902Y-84415930D01*
X179154561Y-84347332D01*
X179147969Y-84266344D01*
X179140512Y-84177933D01*
X179116366Y-83896474D01*
X179355200Y-84063534D01*
G37*
G36*
X180731240Y-84225243D02*
G01*
X180744686Y-84227091D01*
X180766658Y-84235165D01*
X180778006Y-84254832D01*
X180785127Y-84294287D01*
X180787423Y-84311797D01*
X180792034Y-84353018D01*
X180793868Y-84379491D01*
X180793868Y-84379947D01*
X180793389Y-84391980D01*
X180790079Y-84394039D01*
X180781128Y-84382548D01*
X180763727Y-84353927D01*
X180735066Y-84304599D01*
X180686094Y-84219972D01*
X180731240Y-84225243D01*
G37*
G36*
X180779835Y-84185746D02*
G01*
X180772898Y-84194450D01*
X180748260Y-84199564D01*
X180740652Y-84199408D01*
X180726714Y-84195982D01*
X180737735Y-84185746D01*
X180745441Y-84181046D01*
X180771000Y-84172688D01*
X180779835Y-84185746D01*
G37*
G36*
X180784438Y-82445642D02*
G01*
X180867402Y-82446184D01*
X180939349Y-82447493D01*
X180996016Y-82449429D01*
X181033142Y-82451851D01*
X181046464Y-82454619D01*
X181040228Y-82468075D01*
X181021925Y-82501999D01*
X180993773Y-82552310D01*
X180958003Y-82615027D01*
X180916843Y-82686166D01*
X180876563Y-82754683D01*
X180839549Y-82816365D01*
X180809469Y-82865140D01*
X180788675Y-82897197D01*
X180779515Y-82908729D01*
X180779300Y-82908668D01*
X180769250Y-82895544D01*
X180747639Y-82862105D01*
X180716770Y-82812080D01*
X180678947Y-82749196D01*
X180636472Y-82677182D01*
X180501137Y-82445635D01*
X180773801Y-82445635D01*
X180784438Y-82445642D01*
G37*
G36*
X181255313Y-79956496D02*
G01*
X181282086Y-79968791D01*
X181336161Y-79993628D01*
X181411405Y-80028192D01*
X181505431Y-80071386D01*
X181615852Y-80122113D01*
X181740280Y-80179276D01*
X181876329Y-80241779D01*
X182021611Y-80308526D01*
X182173740Y-80378419D01*
X182330327Y-80450361D01*
X183270378Y-80882263D01*
X183293742Y-81007900D01*
X183298593Y-81035793D01*
X183305737Y-81088407D01*
X183308282Y-81127329D01*
X183305632Y-81145672D01*
X183305617Y-81145688D01*
X183291781Y-81154349D01*
X183255270Y-81175809D01*
X183197834Y-81209067D01*
X183121221Y-81253124D01*
X183027180Y-81306984D01*
X182917460Y-81369646D01*
X182793809Y-81440112D01*
X182657975Y-81517383D01*
X182511709Y-81600460D01*
X182356757Y-81688346D01*
X182194869Y-81780041D01*
X181095580Y-82402273D01*
X180782498Y-82402905D01*
X180469416Y-82403536D01*
X179417775Y-81784368D01*
X179286749Y-81707150D01*
X179135301Y-81617705D01*
X178992413Y-81533110D01*
X178859826Y-81454405D01*
X178739277Y-81382627D01*
X178632504Y-81318818D01*
X178541246Y-81264016D01*
X178467242Y-81219259D01*
X178412229Y-81185589D01*
X178377947Y-81164043D01*
X178366133Y-81155662D01*
X178366324Y-81155261D01*
X178381499Y-81145905D01*
X178418629Y-81126816D01*
X178474460Y-81099560D01*
X178545739Y-81065704D01*
X178629214Y-81026814D01*
X178721633Y-80984457D01*
X179077132Y-80822790D01*
X179735528Y-81185056D01*
X180393923Y-81547321D01*
X180573450Y-81547418D01*
X180752978Y-81547514D01*
X181279617Y-81273868D01*
X181341231Y-81241893D01*
X181449689Y-81185814D01*
X181549072Y-81134687D01*
X181636746Y-81089852D01*
X181710077Y-81052648D01*
X181766431Y-81024415D01*
X181803175Y-81006493D01*
X181817673Y-81000221D01*
X181819367Y-80998981D01*
X181822803Y-80979712D01*
X181823315Y-80943668D01*
X181821402Y-80899339D01*
X181817558Y-80855214D01*
X181812279Y-80819781D01*
X181806062Y-80801531D01*
X181805497Y-80801104D01*
X181787849Y-80791561D01*
X181747764Y-80771186D01*
X181687694Y-80741188D01*
X181610092Y-80702778D01*
X181517409Y-80657166D01*
X181412098Y-80605563D01*
X181296609Y-80549179D01*
X181173396Y-80489224D01*
X181154689Y-80480134D01*
X181032347Y-80420553D01*
X180918014Y-80364652D01*
X180814157Y-80313653D01*
X180723239Y-80268776D01*
X180647727Y-80231239D01*
X180590084Y-80202264D01*
X180552778Y-80183071D01*
X180538271Y-80174879D01*
X180540883Y-80170823D01*
X180563808Y-80156078D01*
X180606946Y-80132795D01*
X180666899Y-80102708D01*
X180740273Y-80067553D01*
X180823670Y-80029065D01*
X181120350Y-79894533D01*
X181255313Y-79956496D01*
G37*
G36*
X180495862Y-80202032D02*
G01*
X180516239Y-80210496D01*
X180558713Y-80229809D01*
X180620907Y-80258842D01*
X180700441Y-80296466D01*
X180794937Y-80341552D01*
X180902017Y-80392970D01*
X181019300Y-80449594D01*
X181144410Y-80510292D01*
X181790221Y-80824357D01*
X181790221Y-80890686D01*
X181789436Y-80911000D01*
X181783166Y-80950258D01*
X181772680Y-80973149D01*
X181769533Y-80975365D01*
X181745063Y-80989618D01*
X181699438Y-81014786D01*
X181635401Y-81049401D01*
X181555692Y-81091996D01*
X181463052Y-81141105D01*
X181360223Y-81195258D01*
X181249945Y-81252990D01*
X180744752Y-81516698D01*
X180635995Y-81518073D01*
X180527238Y-81519448D01*
X180526222Y-81480856D01*
X180525912Y-81469535D01*
X180524835Y-81430990D01*
X180523106Y-81369474D01*
X180520811Y-81288056D01*
X180518037Y-81189810D01*
X180514871Y-81077805D01*
X180511399Y-80955114D01*
X180507708Y-80824807D01*
X180505173Y-80733688D01*
X180501913Y-80610780D01*
X180499124Y-80498738D01*
X180496869Y-80400428D01*
X180495209Y-80318713D01*
X180494203Y-80256458D01*
X180493915Y-80216528D01*
X180494404Y-80201788D01*
X180495862Y-80202032D01*
G37*
G36*
X183330108Y-80986968D02*
G01*
X183348137Y-81015396D01*
X183374401Y-81059223D01*
X183406013Y-81113732D01*
X183427084Y-81151352D01*
X183452734Y-81201681D01*
X183462276Y-81229411D01*
X183455658Y-81234826D01*
X183432825Y-81218212D01*
X183393727Y-81179852D01*
X183390897Y-81176864D01*
X183354720Y-81124310D01*
X183334018Y-81057148D01*
X183328525Y-81026282D01*
X183323688Y-80992774D01*
X183323275Y-80978470D01*
X183330108Y-80986968D01*
G37*
G36*
X182211047Y-82659998D02*
G01*
X182242865Y-82675398D01*
X182293031Y-82701342D01*
X182357988Y-82735951D01*
X182434180Y-82777349D01*
X182518049Y-82823657D01*
X182817866Y-82990457D01*
X182728546Y-83046982D01*
X182707344Y-83060459D01*
X182660895Y-83090100D01*
X182595864Y-83131672D01*
X182515107Y-83183347D01*
X182421479Y-83243296D01*
X182317837Y-83309692D01*
X182207037Y-83380707D01*
X182091934Y-83454511D01*
X181990834Y-83519344D01*
X181886307Y-83586359D01*
X181791409Y-83647185D01*
X181708470Y-83700328D01*
X181639824Y-83744294D01*
X181587804Y-83777588D01*
X181554742Y-83798716D01*
X181542970Y-83806183D01*
X181542848Y-83805042D01*
X181542869Y-83784417D01*
X181543507Y-83741057D01*
X181544686Y-83679072D01*
X181546329Y-83602570D01*
X181548361Y-83515663D01*
X181555422Y-83224475D01*
X181631709Y-83091160D01*
X181657122Y-83047712D01*
X181688939Y-82995965D01*
X181715073Y-82956410D01*
X181731567Y-82935228D01*
X181752140Y-82919718D01*
X181791138Y-82893990D01*
X181843798Y-82860900D01*
X181905436Y-82823226D01*
X181971368Y-82783747D01*
X182036910Y-82745240D01*
X182097378Y-82710483D01*
X182148090Y-82682255D01*
X182184361Y-82663332D01*
X182201507Y-82656495D01*
X182211047Y-82659998D01*
G37*
G36*
X182798070Y-82367574D02*
G01*
X182873785Y-82404708D01*
X182865838Y-82463763D01*
X182865447Y-82466805D01*
X182861696Y-82506101D01*
X182857400Y-82565084D01*
X182853060Y-82636292D01*
X182849175Y-82712265D01*
X182848446Y-82727702D01*
X182844628Y-82798313D01*
X182840593Y-82858963D01*
X182836778Y-82903625D01*
X182833622Y-82926271D01*
X182828726Y-82939379D01*
X182818768Y-82950829D01*
X182810060Y-82947294D01*
X182780281Y-82932212D01*
X182733631Y-82907398D01*
X182674263Y-82875168D01*
X182606328Y-82837835D01*
X182533980Y-82797714D01*
X182461370Y-82757121D01*
X182392651Y-82718368D01*
X182331975Y-82683772D01*
X182283496Y-82655647D01*
X182251364Y-82636307D01*
X182239733Y-82628066D01*
X182240202Y-82627346D01*
X182256009Y-82615742D01*
X182291606Y-82592502D01*
X182343383Y-82559904D01*
X182407734Y-82520226D01*
X182481050Y-82475745D01*
X182722356Y-82330440D01*
X182798070Y-82367574D01*
G37*
G36*
X179780126Y-82862778D02*
G01*
X179809491Y-82881653D01*
X179848817Y-82909291D01*
X179879383Y-82936517D01*
X179906817Y-82969551D01*
X179936747Y-83014612D01*
X179974800Y-83077921D01*
X180061331Y-83224475D01*
X180070164Y-83456022D01*
X180072126Y-83504540D01*
X180075864Y-83585166D01*
X180079757Y-83656859D01*
X180083447Y-83713246D01*
X180086575Y-83747955D01*
X180094153Y-83808340D01*
X179584480Y-83468895D01*
X179512243Y-83420782D01*
X179410268Y-83352855D01*
X179317344Y-83290948D01*
X179235855Y-83236650D01*
X179168187Y-83191550D01*
X179116725Y-83157238D01*
X179083854Y-83135304D01*
X179071958Y-83127336D01*
X179078116Y-83123181D01*
X179105471Y-83107223D01*
X179151682Y-83081050D01*
X179213458Y-83046507D01*
X179287510Y-83005444D01*
X179370546Y-82959706D01*
X179671984Y-82794189D01*
X179780126Y-82862778D01*
G37*
G36*
X179392862Y-82618161D02*
G01*
X179640752Y-82773891D01*
X179350763Y-82932376D01*
X179298722Y-82960746D01*
X179221405Y-83002613D01*
X179154595Y-83038445D01*
X179101814Y-83066371D01*
X179066584Y-83084517D01*
X179052425Y-83091011D01*
X179049804Y-83080333D01*
X179045306Y-83046487D01*
X179039588Y-82994521D01*
X179033118Y-82929628D01*
X179026362Y-82857000D01*
X179019787Y-82781830D01*
X179013861Y-82709310D01*
X179009050Y-82644633D01*
X179005821Y-82592991D01*
X179004641Y-82559578D01*
X179011106Y-82547896D01*
X179036591Y-82525645D01*
X179074807Y-82501318D01*
X179144973Y-82462430D01*
X179392862Y-82618161D01*
G37*
D12*
%TO.C,J6*%
X120530000Y-79803153D02*
X120530000Y-97643153D01*
X120530000Y-79803153D02*
X117870000Y-79803153D01*
X120530000Y-97643153D02*
X117870000Y-97643153D01*
X117870000Y-79803153D02*
X117870000Y-97643153D01*
X117870000Y-100243153D02*
X117870000Y-98913153D01*
X119200000Y-100243153D02*
X117870000Y-100243153D01*
%TO.C,J5*%
X149710653Y-100420000D02*
X148380653Y-100420000D01*
X148380653Y-100420000D02*
X148380653Y-99090000D01*
X148380653Y-79980000D02*
X148380653Y-97820000D01*
X151040653Y-97820000D02*
X148380653Y-97820000D01*
X151040653Y-79980000D02*
X148380653Y-79980000D01*
X151040653Y-79980000D02*
X151040653Y-97820000D01*
%TO.C,BT1*%
X169450000Y-83700000D02*
X169450000Y-82700000D01*
X169950000Y-83200000D02*
X168950000Y-83200000D01*
X172550000Y-82200001D02*
G75*
G02*
X166350000Y-82200001I-3100000J-11499999D01*
G01*
%TD*%
M02*
