M48
; DRILL file {KiCad 8.0.7} date 2025-04-21T23:50:44-0300
; FORMAT={-:-/ absolute / inch / decimal}
; #@! TF.CreationDate,2025-04-21T23:50:44-03:00
; #@! TF.GenerationSoftware,Kicad,Pcbnew,8.0.7
; #@! TF.FileFunction,MixedPlating,1,2
FMAT,2
INCH
; #@! TA.AperFunction,Plated,PTH,ViaDrill
T1C0.0118
; #@! TA.AperFunction,Plated,PTH,ComponentDrill
T2C0.0394
; #@! TA.AperFunction,Plated,PTH,ComponentDrill
T3C0.0591
; #@! TA.AperFunction,NonPlated,NPTH,ComponentDrill
T4C0.0354
; #@! TA.AperFunction,NonPlated,NPTH,ComponentDrill
T5C0.1260
%
G90
G05
T1
X4.8869Y-3.0214
X4.8869Y-3.1523
X4.8869Y-3.2852
X4.8869Y-3.4348
X4.8869Y-3.5755
X4.8869Y-3.7202
X4.8869Y-3.8756
X4.8869Y-4.0226
X5.0101Y-3.0285
X5.0101Y-3.1594
X5.0101Y-3.2871
X5.0101Y-3.5824
X5.016Y-3.8678
X5.016Y-4.0174
X5.0177Y-3.4348
X5.0177Y-3.7147
X5.1319Y-3.0308
X5.1319Y-3.1617
X5.1319Y-3.2895
X5.1319Y-3.4381
X5.1319Y-3.585
X5.1319Y-3.7228
X5.1319Y-3.8701
X5.1319Y-4.0171
X5.2562Y-3.027
X5.2562Y-3.1579
X5.2562Y-3.2856
X5.2562Y-3.4343
X5.2562Y-3.5811
X5.2562Y-3.7189
X5.2562Y-3.8812
X5.2562Y-4.0282
X5.3743Y-3.5824
X5.3743Y-3.7202
X5.3743Y-3.8777
X5.3743Y-4.0273
X5.3819Y-3.0335
X5.3819Y-3.1614
X5.3819Y-3.2894
X5.3819Y-3.437
X5.5022Y-3.5824
X5.5022Y-3.7202
X5.5022Y-3.8777
X5.5022Y-4.0273
X5.5045Y-3.2849
X5.5045Y-3.437
X5.5074Y-3.0312
X5.5098Y-3.1614
X5.628Y-3.029
X5.628Y-3.1614
X5.628Y-3.2795
X5.628Y-3.437
X5.6302Y-3.5824
X5.6302Y-3.7202
X5.6302Y-3.8777
X5.6302Y-4.0174
X5.7559Y-3.0312
X5.7559Y-3.1614
X5.7559Y-3.2852
X5.7559Y-3.437
X5.7581Y-3.5824
X5.7581Y-3.7202
X5.7581Y-3.8777
X5.7604Y-4.0197
X6.3957Y-3.6142
X6.4154Y-3.4764
X6.5138Y-3.4567
X6.5138Y-3.6142
X6.6909Y-3.2992
X6.8287Y-3.6083
X7.0831Y-3.2894
X7.0846Y-3.4272
X7.1043Y-3.685
X7.1043Y-3.7402
X7.124Y-3.2894
X7.124Y-3.4272
T2
X4.6929Y-3.1942
X4.6929Y-3.2942
X4.6929Y-3.3942
X4.6929Y-3.4942
X4.6929Y-3.5942
X4.6929Y-3.6942
X4.6929Y-3.7942
X4.6929Y-3.8942
X5.8941Y-3.2012
X5.8941Y-3.3012
X5.8941Y-3.4012
X5.8941Y-3.5012
X5.8941Y-3.6012
X5.8941Y-3.7012
X5.8941Y-3.8012
X5.8941Y-3.9012
X6.1594Y-3.1992
X6.1594Y-3.2992
X6.1594Y-3.3992
X6.1594Y-3.4992
X6.1594Y-3.5992
X6.1594Y-3.6992
X6.1594Y-3.7992
X6.1594Y-3.8992
X6.9831Y-3.0433
X7.0831Y-3.0433
X7.1831Y-3.0433
X7.2028Y-3.4654
X7.2028Y-3.5654
X7.2028Y-3.6654
X7.2028Y-3.7654
X7.2831Y-3.0433
X7.3602Y-3.1961
X7.3602Y-3.2961
X7.3602Y-3.3961
X7.3602Y-3.4961
X7.3602Y-3.5961
X7.3602Y-3.6961
X7.3602Y-3.7961
X7.3602Y-3.8961
T3
X6.6713Y-3.2008
X6.6713Y-4.0197
T4
X6.6713Y-3.0236
X6.7894Y-3.0236
T5
X6.3957Y-3.0827
X7.1634Y-4.0276
M30
