%TF.GenerationSoftware,KiCad,Pcbnew,8.0.7*%
%TF.CreationDate,2025-04-21T23:50:56-03:00*%
%TF.ProjectId,matrixdisplay,6d617472-6978-4646-9973-706c61792e6b,rev?*%
%TF.SameCoordinates,Original*%
%TF.FileFunction,Paste,Top*%
%TF.FilePolarity,Positive*%
%FSLAX46Y46*%
G04 Gerber Fmt 4.6, Leading zero omitted, Abs format (unit mm)*
G04 Created by KiCad (PCBNEW 8.0.7) date 2025-04-21 23:50:56*
%MOMM*%
%LPD*%
G01*
G04 APERTURE LIST*
G04 Aperture macros list*
%AMRoundRect*
0 Rectangle with rounded corners*
0 $1 Rounding radius*
0 $2 $3 $4 $5 $6 $7 $8 $9 X,Y pos of 4 corners*
0 Add a 4 corners polygon primitive as box body*
4,1,4,$2,$3,$4,$5,$6,$7,$8,$9,$2,$3,0*
0 Add four circle primitives for the rounded corners*
1,1,$1+$1,$2,$3*
1,1,$1+$1,$4,$5*
1,1,$1+$1,$6,$7*
1,1,$1+$1,$8,$9*
0 Add four rect primitives between the rounded corners*
20,1,$1+$1,$2,$3,$4,$5,0*
20,1,$1+$1,$4,$5,$6,$7,0*
20,1,$1+$1,$6,$7,$8,$9,0*
20,1,$1+$1,$8,$9,$2,$3,0*%
G04 Aperture macros list end*
%ADD10R,1.000000X0.800000*%
%ADD11R,0.700000X1.500000*%
%ADD12RoundRect,0.135000X0.135000X0.185000X-0.135000X0.185000X-0.135000X-0.185000X0.135000X-0.185000X0*%
%ADD13RoundRect,0.135000X-0.135000X-0.185000X0.135000X-0.185000X0.135000X0.185000X-0.135000X0.185000X0*%
%ADD14RoundRect,0.218750X0.026517X-0.335876X0.335876X-0.026517X-0.026517X0.335876X-0.335876X0.026517X0*%
%ADD15RoundRect,0.200000X0.200000X0.275000X-0.200000X0.275000X-0.200000X-0.275000X0.200000X-0.275000X0*%
%ADD16RoundRect,0.200000X-0.200000X-0.275000X0.200000X-0.275000X0.200000X0.275000X-0.200000X0.275000X0*%
%ADD17R,0.800000X1.100000*%
%ADD18R,0.900000X1.700000*%
%ADD19RoundRect,0.225000X0.225000X0.250000X-0.225000X0.250000X-0.225000X-0.250000X0.225000X-0.250000X0*%
%ADD20RoundRect,0.232500X-0.232500X-0.232500X0.232500X-0.232500X0.232500X0.232500X-0.232500X0.232500X0*%
%ADD21RoundRect,0.062500X-0.375000X-0.062500X0.375000X-0.062500X0.375000X0.062500X-0.375000X0.062500X0*%
%ADD22RoundRect,0.062500X-0.062500X-0.375000X0.062500X-0.375000X0.062500X0.375000X-0.062500X0.375000X0*%
%ADD23RoundRect,0.218750X-0.218750X-0.256250X0.218750X-0.256250X0.218750X0.256250X-0.218750X0.256250X0*%
%ADD24RoundRect,0.218750X0.218750X0.256250X-0.218750X0.256250X-0.218750X-0.256250X0.218750X-0.256250X0*%
G04 APERTURE END LIST*
D10*
%TO.C,SW2*%
X174600000Y-77910000D03*
X174600000Y-75700000D03*
X167300000Y-77910000D03*
X167300000Y-75700000D03*
D11*
X173200000Y-78560000D03*
X170200000Y-78560000D03*
X168700000Y-78560000D03*
%TD*%
D12*
%TO.C,R11*%
X120760000Y-77800000D03*
X119740000Y-77800000D03*
%TD*%
%TO.C,R10*%
X122560000Y-79600000D03*
X121540000Y-79600000D03*
%TD*%
%TO.C,R9*%
X122560000Y-83000000D03*
X121540000Y-83000000D03*
%TD*%
%TO.C,R8*%
X122560000Y-86800000D03*
X121540000Y-86800000D03*
%TD*%
D13*
%TO.C,R7*%
X121540000Y-90400000D03*
X122560000Y-90400000D03*
%TD*%
%TO.C,R6*%
X121540000Y-93800000D03*
X122560000Y-93800000D03*
%TD*%
%TO.C,R5*%
X121540000Y-98000000D03*
X122560000Y-98000000D03*
%TD*%
%TO.C,R4*%
X119540000Y-102400000D03*
X120560000Y-102400000D03*
%TD*%
D14*
%TO.C,D66*%
X146313694Y-102100000D03*
X145200000Y-103213694D03*
%TD*%
%TO.C,D65*%
X143006847Y-102043153D03*
X141893153Y-103156847D03*
%TD*%
%TO.C,D64*%
X139756847Y-102293153D03*
X138643153Y-103406847D03*
%TD*%
%TO.C,D63*%
X136506847Y-102293153D03*
X135393153Y-103406847D03*
%TD*%
%TO.C,D62*%
X146256847Y-98493153D03*
X145143153Y-99606847D03*
%TD*%
%TO.C,D61*%
X143006847Y-98493153D03*
X141893153Y-99606847D03*
%TD*%
%TO.C,D60*%
X139756847Y-98493153D03*
X138643153Y-99606847D03*
%TD*%
%TO.C,D59*%
X136506847Y-98493153D03*
X135393153Y-99606847D03*
%TD*%
%TO.C,D58*%
X146256847Y-94493153D03*
X145143153Y-95606847D03*
%TD*%
%TO.C,D57*%
X143006847Y-94493153D03*
X141893153Y-95606847D03*
%TD*%
%TO.C,D56*%
X139756847Y-94493153D03*
X138643153Y-95606847D03*
%TD*%
%TO.C,D55*%
X136506847Y-94493153D03*
X135393153Y-95606847D03*
%TD*%
%TO.C,D54*%
X146256847Y-90993153D03*
X145143153Y-92106847D03*
%TD*%
%TO.C,D53*%
X143006847Y-90993153D03*
X141893153Y-92106847D03*
%TD*%
%TO.C,D52*%
X139756847Y-90993153D03*
X138643153Y-92106847D03*
%TD*%
%TO.C,D51*%
X136506847Y-90993153D03*
X135393153Y-92106847D03*
%TD*%
%TO.C,D50*%
X146200000Y-87300000D03*
X145086306Y-88413694D03*
%TD*%
%TO.C,D49*%
X142950000Y-87300000D03*
X141836306Y-88413694D03*
%TD*%
%TO.C,D48*%
X139813694Y-87300000D03*
X138700000Y-88413694D03*
%TD*%
%TO.C,D47*%
X136700000Y-87300000D03*
X135586306Y-88413694D03*
%TD*%
%TO.C,D46*%
X146200000Y-83443153D03*
X145086306Y-84556847D03*
%TD*%
%TO.C,D45*%
X142950000Y-83300000D03*
X141836306Y-84413694D03*
%TD*%
%TO.C,D44*%
X139813694Y-83436306D03*
X138700000Y-84550000D03*
%TD*%
%TO.C,D43*%
X136700000Y-83550000D03*
X135586306Y-84663694D03*
%TD*%
%TO.C,D42*%
X146200000Y-80300000D03*
X145086306Y-81413694D03*
%TD*%
%TO.C,D41*%
X142950000Y-80300000D03*
X141836306Y-81413694D03*
%TD*%
%TO.C,D40*%
X139950000Y-80300000D03*
X138836306Y-81413694D03*
%TD*%
%TO.C,D39*%
X136700000Y-80300000D03*
X135586306Y-81413694D03*
%TD*%
%TO.C,D38*%
X145086306Y-78106846D03*
X146200000Y-76993152D03*
%TD*%
%TO.C,D37*%
X141836306Y-78050000D03*
X142950000Y-76936306D03*
%TD*%
%TO.C,D36*%
X138774458Y-78106847D03*
X139888152Y-76993153D03*
%TD*%
%TO.C,D35*%
X136700000Y-77050000D03*
X135586306Y-78163694D03*
%TD*%
%TO.C,D34*%
X133506847Y-102316847D03*
X132393153Y-103430541D03*
%TD*%
%TO.C,D33*%
X133506847Y-98581847D03*
X132393153Y-99695541D03*
%TD*%
%TO.C,D32*%
X133506847Y-94460000D03*
X132393153Y-95573694D03*
%TD*%
%TO.C,D31*%
X133506847Y-90960000D03*
X132393153Y-92073694D03*
%TD*%
%TO.C,D30*%
X133506847Y-87230000D03*
X132393153Y-88343694D03*
%TD*%
%TO.C,D29*%
X133506847Y-83455000D03*
X132393153Y-84568694D03*
%TD*%
%TO.C,D28*%
X133506847Y-80210000D03*
X132393153Y-81323694D03*
%TD*%
%TO.C,D27*%
X133506847Y-76885000D03*
X132393153Y-77998694D03*
%TD*%
%TO.C,D26*%
X130351194Y-102035000D03*
X129237500Y-103148694D03*
%TD*%
%TO.C,D25*%
X130351194Y-98300000D03*
X129237500Y-99413694D03*
%TD*%
%TO.C,D24*%
X129237500Y-95671847D03*
X130351194Y-94558153D03*
%TD*%
%TO.C,D23*%
X130351194Y-91058153D03*
X129237500Y-92171847D03*
%TD*%
%TO.C,D22*%
X130351194Y-87328153D03*
X129237500Y-88441847D03*
%TD*%
%TO.C,D21*%
X130351194Y-83553153D03*
X129237500Y-84666847D03*
%TD*%
%TO.C,D20*%
X130351194Y-80308153D03*
X129237500Y-81421847D03*
%TD*%
%TO.C,D19*%
X130351194Y-76983153D03*
X129237500Y-78096847D03*
%TD*%
%TO.C,D18*%
X127406847Y-102043153D03*
X126293153Y-103156847D03*
%TD*%
%TO.C,D17*%
X127406847Y-98243153D03*
X126293153Y-99356847D03*
%TD*%
%TO.C,D16*%
X127449347Y-94353153D03*
X126335653Y-95466847D03*
%TD*%
%TO.C,D15*%
X126143153Y-92106847D03*
X127256847Y-90993153D03*
%TD*%
%TO.C,D14*%
X127449347Y-87243153D03*
X126335653Y-88356847D03*
%TD*%
%TO.C,D13*%
X127256847Y-83493153D03*
X126143153Y-84606847D03*
%TD*%
%TO.C,D12*%
X127256847Y-80248153D03*
X126143153Y-81361847D03*
%TD*%
%TO.C,D11*%
X127256847Y-76923153D03*
X126143153Y-78036847D03*
%TD*%
%TO.C,D10*%
X124126194Y-102175000D03*
X123012500Y-103288694D03*
%TD*%
%TO.C,D9*%
X124126194Y-98440000D03*
X123012500Y-99553694D03*
%TD*%
%TO.C,D8*%
X124126194Y-94493153D03*
X123012500Y-95606847D03*
%TD*%
%TO.C,D7*%
X124126194Y-90818153D03*
X123012500Y-91931847D03*
%TD*%
%TO.C,D6*%
X124126194Y-87243153D03*
X123012500Y-88356847D03*
%TD*%
%TO.C,D5*%
X124126194Y-83443153D03*
X123012500Y-84556847D03*
%TD*%
%TO.C,D4*%
X124126194Y-80068153D03*
X123012500Y-81181847D03*
%TD*%
%TO.C,D3*%
X124126194Y-76743153D03*
X123012500Y-77856847D03*
%TD*%
D15*
%TO.C,R2*%
X174275000Y-82800000D03*
X172625000Y-82800000D03*
%TD*%
D16*
%TO.C,R3*%
X168100000Y-87300000D03*
X166450000Y-87300000D03*
%TD*%
D17*
%TO.C,SW1*%
X166100000Y-82480000D03*
D18*
X164400000Y-84120000D03*
X167800000Y-84120000D03*
%TD*%
D19*
%TO.C,C3*%
X166675000Y-91300000D03*
X168225000Y-91300000D03*
%TD*%
D16*
%TO.C,R1*%
X171100000Y-85300000D03*
X169450000Y-85300000D03*
%TD*%
D17*
%TO.C,SW3*%
X173950000Y-99980000D03*
D18*
X172250000Y-101620000D03*
X175650000Y-101620000D03*
%TD*%
D20*
%TO.C,U1*%
X172300000Y-90500000D03*
X172300000Y-91650000D03*
X172300000Y-92800000D03*
X173450000Y-90500000D03*
X173450000Y-91650000D03*
X173450000Y-92800000D03*
X174600000Y-90500000D03*
X174600000Y-91650000D03*
X174600000Y-92800000D03*
D21*
X171012500Y-89900000D03*
X171012500Y-90400000D03*
X171012500Y-90900000D03*
X171012500Y-91400000D03*
X171012500Y-91900000D03*
X171012500Y-92400000D03*
X171012500Y-92900000D03*
X171012500Y-93400000D03*
D22*
X171700000Y-94087500D03*
X172200000Y-94087500D03*
X172700000Y-94087500D03*
X173200000Y-94087500D03*
X173700000Y-94087500D03*
X174200000Y-94087500D03*
X174700000Y-94087500D03*
X175200000Y-94087500D03*
D21*
X175887500Y-93400000D03*
X175887500Y-92900000D03*
X175887500Y-92400000D03*
X175887500Y-91900000D03*
X175887500Y-91400000D03*
X175887500Y-90900000D03*
X175887500Y-90400000D03*
X175887500Y-89900000D03*
D22*
X175200000Y-89212500D03*
X174700000Y-89212500D03*
X174200000Y-89212500D03*
X173700000Y-89212500D03*
X173200000Y-89212500D03*
X172700000Y-89212500D03*
X172200000Y-89212500D03*
X171700000Y-89212500D03*
%TD*%
D19*
%TO.C,C1*%
X166550000Y-88800000D03*
X168100000Y-88800000D03*
%TD*%
D23*
%TO.C,D2*%
X171100000Y-87300000D03*
X169525000Y-87300000D03*
%TD*%
D19*
%TO.C,C2*%
X166550000Y-92800000D03*
X168100000Y-92800000D03*
%TD*%
D24*
%TO.C,D1*%
X174200000Y-80800000D03*
X172625000Y-80800000D03*
%TD*%
D17*
%TO.C,SW4*%
X163450000Y-99980000D03*
D18*
X161750000Y-101620000D03*
X165150000Y-101620000D03*
%TD*%
M02*
